<?xml version="1.0" encoding="utf-8"?>
<!-- Generator: Adobe Illustrator 15.0.0, SVG Export Plug-In . SVG Version: 6.00 Build 0)  -->
<!DOCTYPE svg PUBLIC "-//W3C//DTD SVG 1.1//EN" "http://www.w3.org/Graphics/SVG/1.1/DTD/svg11.dtd">
<svg version="1.1" id="Layer_1" xmlns="http://www.w3.org/2000/svg" xmlns:xlink="http://www.w3.org/1999/xlink" x="0px" y="0px"
	 width="612px" height="792px" viewBox="0 0 612 792" enable-background="new 0 0 612 792" xml:space="preserve">
<polygon fill="#48BA7F" points="29.39,0 14.695,29.774 0,0 "/>
<polygon fill="#7181BF" points="44.084,29.774 29.39,0 14.695,29.774 "/>
<polygon fill="#48BA7F" points="58.779,0 44.084,29.774 29.39,0 "/>
<polygon fill="#7181BF" points="73.474,29.774 58.78,0 44.084,29.774 "/>
<polygon fill="#48BA7F" points="88.169,0 73.474,29.774 58.779,0 "/>
<polygon fill="#7181BF" points="102.864,29.774 88.169,0 73.474,29.774 "/>
<polygon fill="#48BA7F" points="117.559,0 102.864,29.774 88.169,0 "/>
<polygon fill="#7181BF" points="132.253,29.774 117.559,0 102.864,29.774 "/>
<polygon fill="#48BA7F" points="146.948,0 132.253,29.774 117.559,0 "/>
<polygon fill="#7181BF" points="161.643,29.774 146.949,0 132.253,29.774 "/>
<polygon fill="#48BA7F" points="176.338,0 161.643,29.774 146.948,0 "/>
<polygon fill="#7181BF" points="191.033,29.774 176.338,0 161.643,29.774 "/>
<polygon fill="#48BA7F" points="205.728,0 191.033,29.774 176.338,0 "/>
<polygon fill="#7181BF" points="220.422,29.774 205.728,0 191.033,29.774 "/>
<polygon fill="#48BA7F" points="235.117,0 220.422,29.774 205.728,0 "/>
<polygon fill="#7181BF" points="249.812,29.774 235.118,0 220.422,29.774 "/>
<polygon fill="#48BA7F" points="264.507,0 249.812,29.774 235.117,0 "/>
<polygon fill="#7181BF" points="279.202,29.774 264.507,0 249.812,29.774 "/>
<polygon fill="#48BA7F" points="293.896,0 279.202,29.774 264.507,0 "/>
<polygon fill="#7181BF" points="308.592,29.774 293.897,0 279.202,29.774 "/>
<polygon fill="#48BA7F" points="323.286,0 308.592,29.774 293.896,0 "/>
<polygon fill="#7181BF" points="337.98,29.774 323.287,0 308.592,29.774 "/>
<polygon fill="#48BA7F" points="352.676,0 337.98,29.774 323.286,0 "/>
<polygon fill="#7181BF" points="367.371,29.774 352.676,0 337.98,29.774 "/>
<polygon fill="#48BA7F" points="382.065,0 367.371,29.774 352.676,0 "/>
<polygon fill="#7181BF" points="396.76,29.774 382.066,0 367.371,29.774 "/>
<polygon fill="#48BA7F" points="411.455,0 396.76,29.774 382.065,0 "/>
<polygon fill="#7181BF" points="426.15,29.774 411.455,0 396.76,29.774 "/>
<polygon fill="#48BA7F" points="440.845,0 426.15,29.774 411.455,0 "/>
<polygon fill="#7181BF" points="455.539,29.774 440.846,0 426.15,29.774 "/>
<polygon fill="#48BA7F" points="470.234,0 455.539,29.774 440.845,0 "/>
<polygon fill="#7181BF" points="484.93,29.774 470.234,0 455.539,29.774 "/>
<polygon fill="#48BA7F" points="499.624,0 484.929,29.774 470.234,0 "/>
<polygon fill="#7181BF" points="514.319,29.774 499.624,0 484.929,29.774 "/>
<polygon fill="#48BA7F" points="529.014,0 514.318,29.774 499.624,0 "/>
<polygon fill="#7181BF" points="543.709,29.774 529.014,0 514.318,29.774 "/>
<polygon fill="#48BA7F" points="558.403,0 543.708,29.774 529.014,0 "/>
<polygon fill="#7181BF" points="573.099,29.774 558.403,0 543.708,29.774 "/>
<polygon fill="#48BA7F" points="587.793,0 573.098,29.774 558.403,0 "/>
<polygon fill="#7181BF" points="602.488,29.774 587.793,0 573.098,29.774 "/>
<polygon fill="#48BA7F" points="617.183,0 602.487,29.774 587.793,0 "/>
<polygon fill="#7181BF" points="631.878,29.774 617.183,0 602.487,29.774 "/>
<polygon fill="#7181BF" points="14.694,29.774 0.001,0 -14.695,29.774 "/>
<polygon fill="#48BA7F" points="44.084,29.774 29.389,59.549 14.694,29.774 "/>
<polygon fill="#7181BF" points="58.779,59.549 44.084,29.774 29.389,59.549 "/>
<polygon fill="#48BA7F" points="73.474,29.774 58.779,59.549 44.084,29.774 "/>
<polygon fill="#7181BF" points="88.168,59.549 73.474,29.774 58.779,59.549 "/>
<polygon fill="#48BA7F" points="102.863,29.774 88.168,59.549 73.474,29.774 "/>
<polygon fill="#7181BF" points="117.558,59.549 102.864,29.774 88.168,59.549 "/>
<polygon fill="#48BA7F" points="132.253,29.774 117.558,59.549 102.863,29.774 "/>
<polygon fill="#7181BF" points="146.948,59.549 132.253,29.774 117.558,59.549 "/>
<polygon fill="#48BA7F" points="161.643,29.774 146.948,59.549 132.253,29.774 "/>
<polygon fill="#7181BF" points="176.337,59.549 161.643,29.774 146.948,59.549 "/>
<polygon fill="#48BA7F" points="191.032,29.774 176.337,59.549 161.643,29.774 "/>
<polygon fill="#7181BF" points="205.727,59.549 191.033,29.774 176.337,59.549 "/>
<polygon fill="#48BA7F" points="220.422,29.774 205.727,59.549 191.032,29.774 "/>
<polygon fill="#7181BF" points="235.117,59.549 220.422,29.774 205.727,59.549 "/>
<polygon fill="#48BA7F" points="249.812,29.774 235.117,59.549 220.422,29.774 "/>
<polygon fill="#7181BF" points="264.506,59.549 249.812,29.774 235.117,59.549 "/>
<polygon fill="#48BA7F" points="279.201,29.774 264.506,59.549 249.812,29.774 "/>
<polygon fill="#7181BF" points="293.896,59.549 279.202,29.774 264.506,59.549 "/>
<polygon fill="#48BA7F" points="308.591,29.774 293.896,59.549 279.201,29.774 "/>
<polygon fill="#7181BF" points="323.286,59.549 308.591,29.774 293.896,59.549 "/>
<polygon fill="#48BA7F" points="337.98,29.774 323.286,59.549 308.591,29.774 "/>
<polygon fill="#7181BF" points="352.675,59.549 337.981,29.774 323.286,59.549 "/>
<polygon fill="#48BA7F" points="367.37,29.774 352.675,59.549 337.98,29.774 "/>
<polygon fill="#7181BF" points="382.065,59.549 367.37,29.774 352.675,59.549 "/>
<polygon fill="#48BA7F" points="396.76,29.774 382.065,59.549 367.37,29.774 "/>
<polygon fill="#7181BF" points="411.454,59.549 396.761,29.774 382.065,59.549 "/>
<polygon fill="#48BA7F" points="426.149,29.774 411.454,59.549 396.76,29.774 "/>
<polygon fill="#7181BF" points="440.845,59.549 426.149,29.774 411.454,59.549 "/>
<polygon fill="#48BA7F" points="455.539,29.774 440.845,59.549 426.149,29.774 "/>
<polygon fill="#7181BF" points="470.233,59.549 455.54,29.774 440.845,59.549 "/>
<polygon fill="#48BA7F" points="484.929,29.774 470.233,59.549 455.539,29.774 "/>
<polygon fill="#7181BF" points="499.624,59.549 484.929,29.774 470.233,59.549 "/>
<polygon fill="#48BA7F" points="514.318,29.774 499.623,59.549 484.929,29.774 "/>
<polygon fill="#7181BF" points="529.014,59.549 514.318,29.774 499.623,59.549 "/>
<polygon fill="#48BA7F" points="543.708,29.774 529.013,59.549 514.318,29.774 "/>
<polygon fill="#7181BF" points="558.403,59.549 543.708,29.774 529.013,59.549 "/>
<polygon fill="#48BA7F" points="573.098,29.774 558.402,59.549 543.708,29.774 "/>
<polygon fill="#7181BF" points="587.793,59.549 573.098,29.774 558.402,59.549 "/>
<polygon fill="#48BA7F" points="602.487,29.774 587.792,59.549 573.098,29.774 "/>
<polygon fill="#7181BF" points="617.183,59.549 602.487,29.774 587.792,59.549 "/>
<polygon fill="#48BA7F" points="631.877,29.774 617.182,59.549 602.487,29.774 "/>
<polygon fill="#7181BF" points="646.572,59.549 631.877,29.774 617.182,59.549 "/>
<polygon fill="#7181BF" points="29.389,59.549 14.695,29.774 0,59.549 "/>
<polygon fill="#48BA7F" points="29.39,59.549 14.695,89.323 0,59.549 "/>
<polygon fill="#7181BF" points="44.084,89.323 29.39,59.549 14.695,89.323 "/>
<polygon fill="#48BA7F" points="58.779,59.549 44.084,89.323 29.39,59.549 "/>
<polygon fill="#7181BF" points="73.474,89.323 58.78,59.549 44.084,89.323 "/>
<polygon fill="#48BA7F" points="88.169,59.549 73.474,89.323 58.779,59.549 "/>
<polygon fill="#7181BF" points="102.864,89.323 88.169,59.549 73.474,89.323 "/>
<polygon fill="#48BA7F" points="117.559,59.549 102.864,89.323 88.169,59.549 "/>
<polygon fill="#7181BF" points="132.253,89.323 117.559,59.549 102.864,89.323 "/>
<polygon fill="#48BA7F" points="146.948,59.549 132.253,89.323 117.559,59.549 "/>
<polygon fill="#7181BF" points="161.643,89.323 146.949,59.549 132.253,89.323 "/>
<polygon fill="#48BA7F" points="176.338,59.549 161.643,89.323 146.948,59.549 "/>
<polygon fill="#7181BF" points="191.033,89.323 176.338,59.549 161.643,89.323 "/>
<polygon fill="#48BA7F" points="205.728,59.549 191.033,89.323 176.338,59.549 "/>
<polygon fill="#7181BF" points="220.422,89.323 205.728,59.549 191.033,89.323 "/>
<polygon fill="#48BA7F" points="235.117,59.549 220.422,89.323 205.728,59.549 "/>
<polygon fill="#7181BF" points="249.812,89.323 235.118,59.549 220.422,89.323 "/>
<polygon fill="#48BA7F" points="264.507,59.549 249.812,89.323 235.117,59.549 "/>
<polygon fill="#7181BF" points="279.201,89.323 264.507,59.549 249.812,89.323 "/>
<polygon fill="#48BA7F" points="293.896,59.549 279.201,89.323 264.507,59.549 "/>
<polygon fill="#7181BF" points="308.592,89.323 293.896,59.549 279.201,89.323 "/>
<polygon fill="#48BA7F" points="323.286,59.549 308.592,89.323 293.896,59.549 "/>
<polygon fill="#7181BF" points="337.98,89.323 323.287,59.549 308.592,89.323 "/>
<polygon fill="#48BA7F" points="352.676,59.549 337.98,89.323 323.286,59.549 "/>
<polygon fill="#7181BF" points="367.371,89.323 352.676,59.549 337.98,89.323 "/>
<polygon fill="#48BA7F" points="382.065,59.549 367.371,89.323 352.676,59.549 "/>
<polygon fill="#7181BF" points="396.76,89.323 382.066,59.549 367.371,89.323 "/>
<polygon fill="#48BA7F" points="411.455,59.549 396.76,89.323 382.065,59.549 "/>
<polygon fill="#7181BF" points="426.15,89.323 411.455,59.549 396.76,89.323 "/>
<polygon fill="#48BA7F" points="440.845,59.549 426.15,89.323 411.455,59.549 "/>
<polygon fill="#7181BF" points="455.539,89.323 440.846,59.549 426.15,89.323 "/>
<polygon fill="#48BA7F" points="470.234,59.549 455.539,89.323 440.845,59.549 "/>
<polygon fill="#7181BF" points="484.93,89.323 470.234,59.549 455.539,89.323 "/>
<polygon fill="#48BA7F" points="499.624,59.549 484.929,89.323 470.234,59.549 "/>
<polygon fill="#7181BF" points="514.319,89.323 499.624,59.549 484.929,89.323 "/>
<polygon fill="#48BA7F" points="529.014,59.549 514.318,89.323 499.624,59.549 "/>
<polygon fill="#7181BF" points="543.709,89.323 529.014,59.549 514.318,89.323 "/>
<polygon fill="#48BA7F" points="558.403,59.549 543.708,89.323 529.014,59.549 "/>
<polygon fill="#7181BF" points="573.099,89.323 558.403,59.549 543.708,89.323 "/>
<polygon fill="#48BA7F" points="587.793,59.549 573.098,89.323 558.403,59.549 "/>
<polygon fill="#7181BF" points="602.488,89.323 587.793,59.549 573.098,89.323 "/>
<polygon fill="#48BA7F" points="617.183,59.549 602.487,89.323 587.793,59.549 "/>
<polygon fill="#7181BF" points="631.878,89.323 617.183,59.549 602.487,89.323 "/>
<polygon fill="#7181BF" points="14.694,89.323 0.001,59.549 -14.695,89.323 "/>
<polygon fill="#48BA7F" points="44.084,89.323 29.389,119.098 14.694,89.323 "/>
<polygon fill="#7181BF" points="58.779,119.098 44.084,89.323 29.389,119.098 "/>
<polygon fill="#48BA7F" points="73.474,89.323 58.779,119.098 44.084,89.323 "/>
<polygon fill="#7181BF" points="88.168,119.098 73.474,89.323 58.779,119.098 "/>
<polygon fill="#48BA7F" points="102.863,89.323 88.168,119.098 73.474,89.323 "/>
<polygon fill="#7181BF" points="117.558,119.098 102.864,89.323 88.168,119.098 "/>
<polygon fill="#48BA7F" points="132.253,89.323 117.558,119.098 102.863,89.323 "/>
<polygon fill="#7181BF" points="146.948,119.098 132.253,89.323 117.558,119.098 "/>
<polygon fill="#48BA7F" points="161.643,89.323 146.948,119.098 132.253,89.323 "/>
<polygon fill="#7181BF" points="176.337,119.098 161.643,89.323 146.948,119.098 "/>
<polygon fill="#48BA7F" points="191.032,89.323 176.337,119.098 161.643,89.323 "/>
<polygon fill="#7181BF" points="205.727,119.098 191.033,89.323 176.337,119.098 "/>
<polygon fill="#48BA7F" points="220.422,89.323 205.727,119.098 191.032,89.323 "/>
<polygon fill="#7181BF" points="235.117,119.098 220.422,89.323 205.727,119.098 "/>
<polygon fill="#48BA7F" points="249.812,89.323 235.117,119.098 220.422,89.323 "/>
<polygon fill="#7181BF" points="264.506,119.098 249.812,89.323 235.117,119.098 "/>
<polygon fill="#48BA7F" points="279.201,89.323 264.506,119.098 249.812,89.323 "/>
<polygon fill="#7181BF" points="293.896,119.098 279.202,89.323 264.506,119.098 "/>
<polygon fill="#48BA7F" points="308.591,89.323 293.896,119.098 279.201,89.323 "/>
<polygon fill="#7181BF" points="323.286,119.098 308.591,89.323 293.896,119.098 "/>
<polygon fill="#48BA7F" points="337.98,89.323 323.286,119.098 308.591,89.323 "/>
<polygon fill="#7181BF" points="352.675,119.098 337.981,89.323 323.286,119.098 "/>
<polygon fill="#48BA7F" points="367.37,89.323 352.675,119.098 337.98,89.323 "/>
<polygon fill="#7181BF" points="382.065,119.098 367.37,89.323 352.675,119.098 "/>
<polygon fill="#48BA7F" points="396.76,89.323 382.065,119.098 367.37,89.323 "/>
<polygon fill="#7181BF" points="411.454,119.098 396.761,89.323 382.065,119.098 "/>
<polygon fill="#48BA7F" points="426.149,89.323 411.454,119.098 396.76,89.323 "/>
<polygon fill="#7181BF" points="440.845,119.098 426.149,89.323 411.454,119.098 "/>
<polygon fill="#48BA7F" points="455.539,89.323 440.845,119.098 426.149,89.323 "/>
<polygon fill="#7181BF" points="470.233,119.098 455.54,89.323 440.845,119.098 "/>
<polygon fill="#48BA7F" points="484.929,89.323 470.233,119.098 455.539,89.323 "/>
<polygon fill="#7181BF" points="499.624,119.098 484.929,89.323 470.233,119.098 "/>
<polygon fill="#48BA7F" points="514.318,89.323 499.623,119.098 484.929,89.323 "/>
<polygon fill="#7181BF" points="529.014,119.098 514.318,89.323 499.623,119.098 "/>
<polygon fill="#48BA7F" points="543.708,89.323 529.013,119.098 514.318,89.323 "/>
<polygon fill="#7181BF" points="558.403,119.098 543.708,89.323 529.013,119.098 "/>
<polygon fill="#48BA7F" points="573.098,89.323 558.402,119.098 543.708,89.323 "/>
<polygon fill="#7181BF" points="587.793,119.098 573.098,89.323 558.402,119.098 "/>
<polygon fill="#48BA7F" points="602.487,89.323 587.792,119.098 573.098,89.323 "/>
<polygon fill="#7181BF" points="617.183,119.098 602.487,89.323 587.792,119.098 "/>
<polygon fill="#48BA7F" points="631.877,89.323 617.182,119.098 602.487,89.323 "/>
<polygon fill="#7181BF" points="646.572,119.098 631.877,89.323 617.182,119.098 "/>
<polygon fill="#7181BF" points="29.389,119.098 14.695,89.323 0,119.098 "/>
<polygon fill="#48BA7F" points="29.39,119.098 14.695,148.872 0,119.098 "/>
<polygon fill="#7181BF" points="44.084,148.872 29.39,119.098 14.695,148.872 "/>
<polygon fill="#48BA7F" points="58.779,119.098 44.084,148.872 29.39,119.098 "/>
<polygon fill="#7181BF" points="73.474,148.872 58.78,119.098 44.084,148.872 "/>
<polygon fill="#48BA7F" points="88.169,119.098 73.474,148.872 58.779,119.098 "/>
<polygon fill="#7181BF" points="102.864,148.872 88.169,119.098 73.474,148.872 "/>
<polygon fill="#48BA7F" points="117.559,119.098 102.864,148.872 88.169,119.098 "/>
<polygon fill="#7181BF" points="132.253,148.872 117.559,119.098 102.864,148.872 "/>
<polygon fill="#48BA7F" points="146.948,119.098 132.253,148.872 117.559,119.098 "/>
<polygon fill="#7181BF" points="161.643,148.872 146.949,119.098 132.253,148.872 "/>
<polygon fill="#48BA7F" points="176.338,119.098 161.643,148.872 146.948,119.098 "/>
<polygon fill="#7181BF" points="191.033,148.872 176.338,119.098 161.643,148.872 "/>
<polygon fill="#48BA7F" points="205.728,119.098 191.033,148.872 176.338,119.098 "/>
<polygon fill="#7181BF" points="220.422,148.872 205.728,119.098 191.033,148.872 "/>
<polygon fill="#48BA7F" points="235.117,119.098 220.422,148.872 205.728,119.098 "/>
<polygon fill="#7181BF" points="249.812,148.872 235.118,119.098 220.422,148.872 "/>
<polygon fill="#48BA7F" points="264.507,119.098 249.812,148.872 235.117,119.098 "/>
<polygon fill="#7181BF" points="279.201,148.872 264.507,119.098 249.812,148.872 "/>
<polygon fill="#48BA7F" points="293.896,119.098 279.201,148.872 264.507,119.098 "/>
<polygon fill="#7181BF" points="308.592,148.872 293.896,119.098 279.201,148.872 "/>
<polygon fill="#48BA7F" points="323.286,119.098 308.592,148.872 293.896,119.098 "/>
<polygon fill="#7181BF" points="337.98,148.872 323.287,119.098 308.592,148.872 "/>
<polygon fill="#48BA7F" points="352.676,119.098 337.98,148.872 323.286,119.098 "/>
<polygon fill="#7181BF" points="367.371,148.872 352.676,119.098 337.98,148.872 "/>
<polygon fill="#48BA7F" points="382.065,119.098 367.371,148.872 352.676,119.098 "/>
<polygon fill="#7181BF" points="396.76,148.872 382.066,119.098 367.371,148.872 "/>
<polygon fill="#48BA7F" points="411.455,119.098 396.76,148.872 382.065,119.098 "/>
<polygon fill="#7181BF" points="426.15,148.872 411.455,119.098 396.76,148.872 "/>
<polygon fill="#48BA7F" points="440.845,119.098 426.15,148.872 411.455,119.098 "/>
<polygon fill="#7181BF" points="455.539,148.872 440.846,119.098 426.15,148.872 "/>
<polygon fill="#48BA7F" points="470.234,119.098 455.539,148.872 440.845,119.098 "/>
<polygon fill="#7181BF" points="484.93,148.872 470.234,119.098 455.539,148.872 "/>
<polygon fill="#48BA7F" points="499.624,119.098 484.929,148.872 470.234,119.098 "/>
<polygon fill="#7181BF" points="514.319,148.872 499.624,119.098 484.929,148.872 "/>
<polygon fill="#48BA7F" points="529.014,119.098 514.318,148.872 499.624,119.098 "/>
<polygon fill="#7181BF" points="543.709,148.872 529.014,119.098 514.318,148.872 "/>
<polygon fill="#48BA7F" points="558.403,119.098 543.708,148.872 529.014,119.098 "/>
<polygon fill="#7181BF" points="573.099,148.872 558.403,119.098 543.708,148.872 "/>
<polygon fill="#48BA7F" points="587.793,119.098 573.098,148.872 558.403,119.098 "/>
<polygon fill="#7181BF" points="602.488,148.872 587.793,119.098 573.098,148.872 "/>
<polygon fill="#48BA7F" points="617.183,119.098 602.487,148.872 587.793,119.098 "/>
<polygon fill="#7181BF" points="631.878,148.872 617.183,119.098 602.487,148.872 "/>
<polygon fill="#7181BF" points="14.694,148.872 0.001,119.098 -14.695,148.872 "/>
<polygon fill="#48BA7F" points="44.084,148.872 29.389,178.646 14.694,148.872 "/>
<polygon fill="#7181BF" points="58.779,178.646 44.084,148.872 29.389,178.646 "/>
<polygon fill="#48BA7F" points="73.474,148.872 58.779,178.646 44.084,148.872 "/>
<polygon fill="#7181BF" points="88.168,178.646 73.474,148.872 58.779,178.646 "/>
<polygon fill="#48BA7F" points="102.863,148.872 88.168,178.646 73.474,148.872 "/>
<polygon fill="#7181BF" points="117.558,178.646 102.864,148.872 88.168,178.646 "/>
<polygon fill="#48BA7F" points="132.253,148.872 117.558,178.646 102.863,148.872 "/>
<polygon fill="#7181BF" points="146.948,178.646 132.253,148.872 117.558,178.646 "/>
<polygon fill="#48BA7F" points="161.643,148.872 146.948,178.646 132.253,148.872 "/>
<polygon fill="#7181BF" points="176.337,178.646 161.643,148.872 146.948,178.646 "/>
<polygon fill="#48BA7F" points="191.032,148.872 176.337,178.646 161.643,148.872 "/>
<polygon fill="#7181BF" points="205.727,178.646 191.033,148.872 176.337,178.646 "/>
<polygon fill="#48BA7F" points="220.422,148.872 205.727,178.646 191.032,148.872 "/>
<polygon fill="#7181BF" points="235.117,178.646 220.422,148.872 205.727,178.646 "/>
<polygon fill="#48BA7F" points="249.812,148.872 235.117,178.646 220.422,148.872 "/>
<polygon fill="#7181BF" points="264.506,178.646 249.812,148.872 235.117,178.646 "/>
<polygon fill="#48BA7F" points="279.201,148.872 264.506,178.646 249.812,148.872 "/>
<polygon fill="#7181BF" points="293.896,178.646 279.202,148.872 264.506,178.646 "/>
<polygon fill="#48BA7F" points="308.591,148.872 293.896,178.646 279.201,148.872 "/>
<polygon fill="#7181BF" points="323.286,178.646 308.591,148.872 293.896,178.646 "/>
<polygon fill="#48BA7F" points="337.98,148.872 323.286,178.646 308.591,148.872 "/>
<polygon fill="#7181BF" points="352.675,178.646 337.981,148.872 323.286,178.646 "/>
<polygon fill="#48BA7F" points="367.37,148.872 352.675,178.646 337.98,148.872 "/>
<polygon fill="#7181BF" points="382.065,178.646 367.37,148.872 352.675,178.646 "/>
<polygon fill="#48BA7F" points="396.76,148.872 382.065,178.646 367.37,148.872 "/>
<polygon fill="#7181BF" points="411.454,178.646 396.761,148.872 382.065,178.646 "/>
<polygon fill="#48BA7F" points="426.149,148.872 411.454,178.646 396.76,148.872 "/>
<polygon fill="#7181BF" points="440.845,178.646 426.149,148.872 411.454,178.646 "/>
<polygon fill="#48BA7F" points="455.539,148.872 440.845,178.646 426.149,148.872 "/>
<polygon fill="#7181BF" points="470.233,178.646 455.54,148.872 440.845,178.646 "/>
<polygon fill="#48BA7F" points="484.929,148.872 470.233,178.646 455.539,148.872 "/>
<polygon fill="#7181BF" points="499.624,178.646 484.929,148.872 470.233,178.646 "/>
<polygon fill="#48BA7F" points="514.318,148.872 499.623,178.646 484.929,148.872 "/>
<polygon fill="#7181BF" points="529.014,178.646 514.318,148.872 499.623,178.646 "/>
<polygon fill="#48BA7F" points="543.708,148.872 529.013,178.646 514.318,148.872 "/>
<polygon fill="#7181BF" points="558.403,178.646 543.708,148.872 529.013,178.646 "/>
<polygon fill="#48BA7F" points="573.098,148.872 558.402,178.646 543.708,148.872 "/>
<polygon fill="#7181BF" points="587.793,178.646 573.098,148.872 558.402,178.646 "/>
<polygon fill="#48BA7F" points="602.487,148.872 587.792,178.646 573.098,148.872 "/>
<polygon fill="#7181BF" points="617.183,178.646 602.487,148.872 587.792,178.646 "/>
<polygon fill="#48BA7F" points="631.877,148.872 617.182,178.646 602.487,148.872 "/>
<polygon fill="#7181BF" points="646.572,178.646 631.877,148.872 617.182,178.646 "/>
<polygon fill="#7181BF" points="29.389,178.646 14.695,148.872 0,178.646 "/>
<polygon fill="#48BA7F" points="29.39,178.646 14.695,208.421 0,178.646 "/>
<polygon fill="#7181BF" points="44.084,208.421 29.39,178.646 14.695,208.421 "/>
<polygon fill="#48BA7F" points="58.779,178.646 44.084,208.421 29.39,178.646 "/>
<polygon fill="#7181BF" points="73.474,208.421 58.78,178.646 44.084,208.421 "/>
<polygon fill="#48BA7F" points="88.169,178.646 73.474,208.421 58.779,178.646 "/>
<polygon fill="#7181BF" points="102.864,208.421 88.169,178.646 73.474,208.421 "/>
<polygon fill="#48BA7F" points="117.559,178.646 102.864,208.421 88.169,178.646 "/>
<polygon fill="#7181BF" points="132.253,208.421 117.559,178.646 102.864,208.421 "/>
<polygon fill="#48BA7F" points="146.948,178.646 132.253,208.421 117.559,178.646 "/>
<polygon fill="#7181BF" points="161.643,208.421 146.949,178.646 132.253,208.421 "/>
<polygon fill="#48BA7F" points="176.338,178.646 161.643,208.421 146.948,178.646 "/>
<polygon fill="#7181BF" points="191.033,208.421 176.338,178.646 161.643,208.421 "/>
<polygon fill="#48BA7F" points="205.728,178.646 191.033,208.421 176.338,178.646 "/>
<polygon fill="#7181BF" points="220.422,208.421 205.728,178.646 191.033,208.421 "/>
<polygon fill="#48BA7F" points="235.117,178.646 220.422,208.421 205.728,178.646 "/>
<polygon fill="#7181BF" points="249.812,208.421 235.118,178.646 220.422,208.421 "/>
<polygon fill="#48BA7F" points="264.507,178.646 249.812,208.421 235.117,178.646 "/>
<polygon fill="#7181BF" points="279.201,208.421 264.507,178.646 249.812,208.421 "/>
<polygon fill="#48BA7F" points="293.896,178.646 279.201,208.421 264.507,178.646 "/>
<polygon fill="#7181BF" points="308.592,208.421 293.896,178.646 279.201,208.421 "/>
<polygon fill="#48BA7F" points="323.286,178.646 308.592,208.421 293.896,178.646 "/>
<polygon fill="#7181BF" points="337.98,208.421 323.287,178.646 308.592,208.421 "/>
<polygon fill="#48BA7F" points="352.676,178.646 337.98,208.421 323.286,178.646 "/>
<polygon fill="#7181BF" points="367.371,208.421 352.676,178.646 337.98,208.421 "/>
<polygon fill="#48BA7F" points="382.065,178.646 367.371,208.421 352.676,178.646 "/>
<polygon fill="#7181BF" points="396.76,208.421 382.066,178.646 367.371,208.421 "/>
<polygon fill="#48BA7F" points="411.455,178.646 396.76,208.421 382.065,178.646 "/>
<polygon fill="#7181BF" points="426.15,208.421 411.455,178.646 396.76,208.421 "/>
<polygon fill="#48BA7F" points="440.845,178.646 426.15,208.421 411.455,178.646 "/>
<polygon fill="#7181BF" points="455.539,208.421 440.846,178.646 426.15,208.421 "/>
<polygon fill="#48BA7F" points="470.234,178.646 455.539,208.421 440.845,178.646 "/>
<polygon fill="#7181BF" points="484.93,208.421 470.234,178.646 455.539,208.421 "/>
<polygon fill="#48BA7F" points="499.624,178.646 484.929,208.421 470.234,178.646 "/>
<polygon fill="#7181BF" points="514.319,208.421 499.624,178.646 484.929,208.421 "/>
<polygon fill="#48BA7F" points="529.014,178.646 514.318,208.421 499.624,178.646 "/>
<polygon fill="#7181BF" points="543.709,208.421 529.014,178.646 514.318,208.421 "/>
<polygon fill="#48BA7F" points="558.403,178.646 543.708,208.421 529.014,178.646 "/>
<polygon fill="#7181BF" points="573.099,208.421 558.403,178.646 543.708,208.421 "/>
<polygon fill="#48BA7F" points="587.793,178.646 573.098,208.421 558.403,178.646 "/>
<polygon fill="#7181BF" points="602.488,208.421 587.793,178.646 573.098,208.421 "/>
<polygon fill="#48BA7F" points="617.183,178.646 602.487,208.421 587.793,178.646 "/>
<polygon fill="#7181BF" points="631.878,208.421 617.183,178.646 602.487,208.421 "/>
<polygon fill="#7181BF" points="14.694,208.421 0.001,178.646 -14.695,208.421 "/>
<polygon fill="#48BA7F" points="44.084,208.421 29.389,238.195 14.694,208.421 "/>
<polygon fill="#7181BF" points="58.779,238.195 44.084,208.421 29.389,238.195 "/>
<polygon fill="#48BA7F" points="73.474,208.421 58.779,238.195 44.084,208.421 "/>
<polygon fill="#7181BF" points="88.168,238.195 73.474,208.421 58.779,238.195 "/>
<polygon fill="#48BA7F" points="102.863,208.421 88.168,238.195 73.474,208.421 "/>
<polygon fill="#7181BF" points="117.558,238.195 102.864,208.421 88.168,238.195 "/>
<polygon fill="#48BA7F" points="132.253,208.421 117.558,238.195 102.863,208.421 "/>
<polygon fill="#7181BF" points="146.948,238.195 132.253,208.421 117.558,238.195 "/>
<polygon fill="#48BA7F" points="161.643,208.421 146.948,238.195 132.253,208.421 "/>
<polygon fill="#7181BF" points="176.337,238.195 161.643,208.421 146.948,238.195 "/>
<polygon fill="#48BA7F" points="191.032,208.421 176.337,238.195 161.643,208.421 "/>
<polygon fill="#7181BF" points="205.727,238.195 191.033,208.421 176.337,238.195 "/>
<polygon fill="#48BA7F" points="220.422,208.421 205.727,238.195 191.032,208.421 "/>
<polygon fill="#7181BF" points="235.117,238.195 220.422,208.421 205.727,238.195 "/>
<polygon fill="#48BA7F" points="249.812,208.421 235.117,238.195 220.422,208.421 "/>
<polygon fill="#7181BF" points="264.506,238.195 249.812,208.421 235.117,238.195 "/>
<polygon fill="#48BA7F" points="279.201,208.421 264.506,238.195 249.812,208.421 "/>
<polygon fill="#7181BF" points="293.896,238.195 279.202,208.421 264.506,238.195 "/>
<polygon fill="#48BA7F" points="308.591,208.421 293.896,238.195 279.201,208.421 "/>
<polygon fill="#7181BF" points="323.286,238.195 308.591,208.421 293.896,238.195 "/>
<polygon fill="#48BA7F" points="337.98,208.421 323.286,238.195 308.591,208.421 "/>
<polygon fill="#7181BF" points="352.675,238.195 337.981,208.421 323.286,238.195 "/>
<polygon fill="#48BA7F" points="367.37,208.421 352.675,238.195 337.98,208.421 "/>
<polygon fill="#7181BF" points="382.065,238.195 367.37,208.421 352.675,238.195 "/>
<polygon fill="#48BA7F" points="396.76,208.421 382.065,238.195 367.37,208.421 "/>
<polygon fill="#7181BF" points="411.454,238.195 396.761,208.421 382.065,238.195 "/>
<polygon fill="#48BA7F" points="426.149,208.421 411.454,238.195 396.76,208.421 "/>
<polygon fill="#7181BF" points="440.845,238.195 426.149,208.421 411.454,238.195 "/>
<polygon fill="#48BA7F" points="455.539,208.421 440.845,238.195 426.149,208.421 "/>
<polygon fill="#7181BF" points="470.233,238.195 455.54,208.421 440.845,238.195 "/>
<polygon fill="#48BA7F" points="484.929,208.421 470.233,238.195 455.539,208.421 "/>
<polygon fill="#7181BF" points="499.624,238.195 484.929,208.421 470.233,238.195 "/>
<polygon fill="#48BA7F" points="514.318,208.421 499.623,238.195 484.929,208.421 "/>
<polygon fill="#7181BF" points="529.014,238.195 514.318,208.421 499.623,238.195 "/>
<polygon fill="#48BA7F" points="543.708,208.421 529.013,238.195 514.318,208.421 "/>
<polygon fill="#7181BF" points="558.403,238.195 543.708,208.421 529.013,238.195 "/>
<polygon fill="#48BA7F" points="573.098,208.421 558.402,238.195 543.708,208.421 "/>
<polygon fill="#7181BF" points="587.793,238.195 573.098,208.421 558.402,238.195 "/>
<polygon fill="#48BA7F" points="602.487,208.421 587.792,238.195 573.098,208.421 "/>
<polygon fill="#7181BF" points="617.183,238.195 602.487,208.421 587.792,238.195 "/>
<polygon fill="#48BA7F" points="631.877,208.421 617.182,238.195 602.487,208.421 "/>
<polygon fill="#7181BF" points="646.572,238.195 631.877,208.421 617.182,238.195 "/>
<polygon fill="#7181BF" points="29.389,238.195 14.695,208.421 0,238.195 "/>
<polygon fill="#48BA7F" points="29.39,238.548 14.695,268.323 0,238.548 "/>
<polygon fill="#7181BF" points="44.084,268.323 29.39,238.548 14.695,268.323 "/>
<polygon fill="#48BA7F" points="58.779,238.548 44.084,268.323 29.39,238.548 "/>
<polygon fill="#7181BF" points="73.474,268.323 58.78,238.548 44.084,268.323 "/>
<polygon fill="#48BA7F" points="88.169,238.548 73.474,268.323 58.779,238.548 "/>
<polygon fill="#7181BF" points="102.864,268.323 88.169,238.548 73.474,268.323 "/>
<polygon fill="#48BA7F" points="117.559,238.548 102.864,268.323 88.169,238.548 "/>
<polygon fill="#7181BF" points="132.253,268.323 117.559,238.548 102.864,268.323 "/>
<polygon fill="#48BA7F" points="146.948,238.548 132.253,268.323 117.559,238.548 "/>
<polygon fill="#7181BF" points="161.643,268.323 146.949,238.548 132.253,268.323 "/>
<polygon fill="#48BA7F" points="176.338,238.548 161.643,268.323 146.948,238.548 "/>
<polygon fill="#7181BF" points="191.033,268.323 176.338,238.548 161.643,268.323 "/>
<polygon fill="#48BA7F" points="205.728,238.548 191.033,268.323 176.338,238.548 "/>
<polygon fill="#7181BF" points="220.422,268.323 205.728,238.548 191.033,268.323 "/>
<polygon fill="#48BA7F" points="235.117,238.548 220.422,268.323 205.728,238.548 "/>
<polygon fill="#7181BF" points="249.812,268.323 235.118,238.548 220.422,268.323 "/>
<polygon fill="#48BA7F" points="264.507,238.548 249.812,268.323 235.117,238.548 "/>
<polygon fill="#7181BF" points="279.201,268.323 264.507,238.548 249.812,268.323 "/>
<polygon fill="#48BA7F" points="293.896,238.548 279.201,268.323 264.507,238.548 "/>
<polygon fill="#7181BF" points="308.592,268.323 293.896,238.548 279.201,268.323 "/>
<polygon fill="#48BA7F" points="323.286,238.548 308.592,268.323 293.896,238.548 "/>
<polygon fill="#7181BF" points="337.98,268.323 323.287,238.548 308.592,268.323 "/>
<polygon fill="#48BA7F" points="352.676,238.548 337.98,268.323 323.286,238.548 "/>
<polygon fill="#7181BF" points="367.371,268.323 352.676,238.548 337.98,268.323 "/>
<polygon fill="#48BA7F" points="382.065,238.548 367.371,268.323 352.676,238.548 "/>
<polygon fill="#7181BF" points="396.76,268.323 382.066,238.548 367.371,268.323 "/>
<polygon fill="#48BA7F" points="411.455,238.548 396.76,268.323 382.065,238.548 "/>
<polygon fill="#7181BF" points="426.15,268.323 411.455,238.548 396.76,268.323 "/>
<polygon fill="#48BA7F" points="440.845,238.548 426.15,268.323 411.455,238.548 "/>
<polygon fill="#7181BF" points="455.539,268.323 440.846,238.548 426.15,268.323 "/>
<polygon fill="#48BA7F" points="470.234,238.548 455.539,268.323 440.845,238.548 "/>
<polygon fill="#7181BF" points="484.93,268.323 470.234,238.548 455.539,268.323 "/>
<polygon fill="#48BA7F" points="499.624,238.548 484.929,268.323 470.234,238.548 "/>
<polygon fill="#7181BF" points="514.319,268.323 499.624,238.548 484.929,268.323 "/>
<polygon fill="#48BA7F" points="529.014,238.548 514.318,268.323 499.624,238.548 "/>
<polygon fill="#7181BF" points="543.709,268.323 529.014,238.548 514.318,268.323 "/>
<polygon fill="#48BA7F" points="558.403,238.548 543.708,268.323 529.014,238.548 "/>
<polygon fill="#7181BF" points="573.099,268.323 558.403,238.548 543.708,268.323 "/>
<polygon fill="#48BA7F" points="587.793,238.548 573.098,268.323 558.403,238.548 "/>
<polygon fill="#7181BF" points="602.488,268.323 587.793,238.548 573.098,268.323 "/>
<polygon fill="#48BA7F" points="617.183,238.548 602.487,268.323 587.793,238.548 "/>
<polygon fill="#7181BF" points="631.878,268.323 617.183,238.548 602.487,268.323 "/>
<polygon fill="#7181BF" points="14.694,268.323 0.001,238.548 -14.695,268.323 "/>
<polygon fill="#48BA7F" points="44.084,268.323 29.389,298.097 14.694,268.323 "/>
<polygon fill="#7181BF" points="58.779,298.097 44.084,268.323 29.389,298.097 "/>
<polygon fill="#48BA7F" points="73.474,268.323 58.779,298.097 44.084,268.323 "/>
<polygon fill="#7181BF" points="88.168,298.097 73.474,268.323 58.779,298.097 "/>
<polygon fill="#48BA7F" points="102.863,268.323 88.168,298.097 73.474,268.323 "/>
<polygon fill="#7181BF" points="117.558,298.097 102.864,268.323 88.168,298.097 "/>
<polygon fill="#48BA7F" points="132.253,268.323 117.558,298.097 102.863,268.323 "/>
<polygon fill="#7181BF" points="146.948,298.097 132.253,268.323 117.558,298.097 "/>
<polygon fill="#48BA7F" points="161.643,268.323 146.948,298.097 132.253,268.323 "/>
<polygon fill="#7181BF" points="176.337,298.097 161.643,268.323 146.948,298.097 "/>
<polygon fill="#48BA7F" points="191.032,268.323 176.337,298.097 161.643,268.323 "/>
<polygon fill="#7181BF" points="205.727,298.097 191.033,268.323 176.337,298.097 "/>
<polygon fill="#48BA7F" points="220.422,268.323 205.727,298.097 191.032,268.323 "/>
<polygon fill="#7181BF" points="235.117,298.097 220.422,268.323 205.727,298.097 "/>
<polygon fill="#48BA7F" points="249.812,268.323 235.117,298.097 220.422,268.323 "/>
<polygon fill="#7181BF" points="264.506,298.097 249.812,268.323 235.117,298.097 "/>
<polygon fill="#48BA7F" points="279.201,268.323 264.506,298.097 249.812,268.323 "/>
<polygon fill="#7181BF" points="293.896,298.097 279.202,268.323 264.506,298.097 "/>
<polygon fill="#48BA7F" points="308.591,268.323 293.896,298.097 279.201,268.323 "/>
<polygon fill="#7181BF" points="323.286,298.097 308.591,268.323 293.896,298.097 "/>
<polygon fill="#48BA7F" points="337.98,268.323 323.286,298.097 308.591,268.323 "/>
<polygon fill="#7181BF" points="352.675,298.097 337.981,268.323 323.286,298.097 "/>
<polygon fill="#48BA7F" points="367.37,268.323 352.675,298.097 337.98,268.323 "/>
<polygon fill="#7181BF" points="382.065,298.097 367.37,268.323 352.675,298.097 "/>
<polygon fill="#48BA7F" points="396.76,268.323 382.065,298.097 367.37,268.323 "/>
<polygon fill="#7181BF" points="411.454,298.097 396.761,268.323 382.065,298.097 "/>
<polygon fill="#48BA7F" points="426.149,268.323 411.454,298.097 396.76,268.323 "/>
<polygon fill="#7181BF" points="440.845,298.097 426.149,268.323 411.454,298.097 "/>
<polygon fill="#48BA7F" points="455.539,268.323 440.845,298.097 426.149,268.323 "/>
<polygon fill="#7181BF" points="470.233,298.097 455.54,268.323 440.845,298.097 "/>
<polygon fill="#48BA7F" points="484.929,268.323 470.233,298.097 455.539,268.323 "/>
<polygon fill="#7181BF" points="499.624,298.097 484.929,268.323 470.233,298.097 "/>
<polygon fill="#48BA7F" points="514.318,268.323 499.623,298.097 484.929,268.323 "/>
<polygon fill="#7181BF" points="529.014,298.097 514.318,268.323 499.623,298.097 "/>
<polygon fill="#48BA7F" points="543.708,268.323 529.013,298.097 514.318,268.323 "/>
<polygon fill="#7181BF" points="558.403,298.097 543.708,268.323 529.013,298.097 "/>
<polygon fill="#48BA7F" points="573.098,268.323 558.402,298.097 543.708,268.323 "/>
<polygon fill="#7181BF" points="587.793,298.097 573.098,268.323 558.402,298.097 "/>
<polygon fill="#48BA7F" points="602.487,268.323 587.792,298.097 573.098,268.323 "/>
<polygon fill="#7181BF" points="617.183,298.097 602.487,268.323 587.792,298.097 "/>
<polygon fill="#48BA7F" points="631.877,268.323 617.182,298.097 602.487,268.323 "/>
<polygon fill="#7181BF" points="646.572,298.097 631.877,268.323 617.182,298.097 "/>
<polygon fill="#7181BF" points="29.389,298.097 14.695,268.323 0,298.097 "/>
<polygon fill="#48BA7F" points="29.39,298.097 14.695,327.872 0,298.097 "/>
<polygon fill="#7181BF" points="44.084,327.872 29.39,298.097 14.695,327.872 "/>
<polygon fill="#48BA7F" points="58.779,298.097 44.084,327.872 29.39,298.097 "/>
<polygon fill="#7181BF" points="73.474,327.872 58.78,298.097 44.084,327.872 "/>
<polygon fill="#48BA7F" points="88.169,298.097 73.474,327.872 58.779,298.097 "/>
<polygon fill="#7181BF" points="102.864,327.872 88.169,298.097 73.474,327.872 "/>
<polygon fill="#48BA7F" points="117.559,298.097 102.864,327.872 88.169,298.097 "/>
<polygon fill="#7181BF" points="132.253,327.872 117.559,298.097 102.864,327.872 "/>
<polygon fill="#48BA7F" points="146.948,298.097 132.253,327.872 117.559,298.097 "/>
<polygon fill="#7181BF" points="161.643,327.872 146.949,298.097 132.253,327.872 "/>
<polygon fill="#48BA7F" points="176.338,298.097 161.643,327.872 146.948,298.097 "/>
<polygon fill="#7181BF" points="191.033,327.872 176.338,298.097 161.643,327.872 "/>
<polygon fill="#48BA7F" points="205.728,298.097 191.033,327.872 176.338,298.097 "/>
<polygon fill="#7181BF" points="220.422,327.872 205.728,298.097 191.033,327.872 "/>
<polygon fill="#48BA7F" points="235.117,298.097 220.422,327.872 205.728,298.097 "/>
<polygon fill="#7181BF" points="249.812,327.872 235.118,298.097 220.422,327.872 "/>
<polygon fill="#48BA7F" points="264.507,298.097 249.812,327.872 235.117,298.097 "/>
<polygon fill="#7181BF" points="279.201,327.872 264.507,298.097 249.812,327.872 "/>
<polygon fill="#48BA7F" points="293.896,298.097 279.201,327.872 264.507,298.097 "/>
<polygon fill="#7181BF" points="308.592,327.872 293.896,298.097 279.201,327.872 "/>
<polygon fill="#48BA7F" points="323.286,298.097 308.592,327.872 293.896,298.097 "/>
<polygon fill="#7181BF" points="337.98,327.872 323.287,298.097 308.592,327.872 "/>
<polygon fill="#48BA7F" points="352.676,298.097 337.98,327.872 323.286,298.097 "/>
<polygon fill="#7181BF" points="367.371,327.872 352.676,298.097 337.98,327.872 "/>
<polygon fill="#48BA7F" points="382.065,298.097 367.371,327.872 352.676,298.097 "/>
<polygon fill="#7181BF" points="396.76,327.872 382.066,298.097 367.371,327.872 "/>
<polygon fill="#48BA7F" points="411.455,298.097 396.76,327.872 382.065,298.097 "/>
<polygon fill="#7181BF" points="426.15,327.872 411.455,298.097 396.76,327.872 "/>
<polygon fill="#48BA7F" points="440.845,298.097 426.15,327.872 411.455,298.097 "/>
<polygon fill="#7181BF" points="455.539,327.872 440.846,298.097 426.15,327.872 "/>
<polygon fill="#48BA7F" points="470.234,298.097 455.539,327.872 440.845,298.097 "/>
<polygon fill="#7181BF" points="484.93,327.872 470.234,298.097 455.539,327.872 "/>
<polygon fill="#48BA7F" points="499.624,298.097 484.929,327.872 470.234,298.097 "/>
<polygon fill="#7181BF" points="514.319,327.872 499.624,298.097 484.929,327.872 "/>
<polygon fill="#48BA7F" points="529.014,298.097 514.318,327.872 499.624,298.097 "/>
<polygon fill="#7181BF" points="543.709,327.872 529.014,298.097 514.318,327.872 "/>
<polygon fill="#48BA7F" points="558.403,298.097 543.708,327.872 529.014,298.097 "/>
<polygon fill="#7181BF" points="573.099,327.872 558.403,298.097 543.708,327.872 "/>
<polygon fill="#48BA7F" points="587.793,298.097 573.098,327.872 558.403,298.097 "/>
<polygon fill="#7181BF" points="602.488,327.872 587.793,298.097 573.098,327.872 "/>
<polygon fill="#48BA7F" points="617.183,298.097 602.487,327.872 587.793,298.097 "/>
<polygon fill="#7181BF" points="631.878,327.872 617.183,298.097 602.487,327.872 "/>
<polygon fill="#7181BF" points="14.694,327.872 0.001,298.097 -14.695,327.872 "/>
<polygon fill="#48BA7F" points="44.084,327.872 29.389,357.646 14.694,327.872 "/>
<polygon fill="#7181BF" points="58.779,357.646 44.084,327.872 29.389,357.646 "/>
<polygon fill="#48BA7F" points="73.474,327.872 58.779,357.646 44.084,327.872 "/>
<polygon fill="#7181BF" points="88.168,357.646 73.474,327.872 58.779,357.646 "/>
<polygon fill="#48BA7F" points="102.863,327.872 88.168,357.646 73.474,327.872 "/>
<polygon fill="#7181BF" points="117.558,357.646 102.864,327.872 88.168,357.646 "/>
<polygon fill="#48BA7F" points="132.253,327.872 117.558,357.646 102.863,327.872 "/>
<polygon fill="#7181BF" points="146.948,357.646 132.253,327.872 117.558,357.646 "/>
<polygon fill="#48BA7F" points="161.643,327.872 146.948,357.646 132.253,327.872 "/>
<polygon fill="#7181BF" points="176.337,357.646 161.643,327.872 146.948,357.646 "/>
<polygon fill="#48BA7F" points="191.032,327.872 176.337,357.646 161.643,327.872 "/>
<polygon fill="#7181BF" points="205.727,357.646 191.033,327.872 176.337,357.646 "/>
<polygon fill="#48BA7F" points="220.422,327.872 205.727,357.646 191.032,327.872 "/>
<polygon fill="#7181BF" points="235.117,357.646 220.422,327.872 205.727,357.646 "/>
<polygon fill="#48BA7F" points="249.812,327.872 235.117,357.646 220.422,327.872 "/>
<polygon fill="#7181BF" points="264.506,357.646 249.812,327.872 235.117,357.646 "/>
<polygon fill="#48BA7F" points="279.201,327.872 264.506,357.646 249.812,327.872 "/>
<polygon fill="#7181BF" points="293.896,357.646 279.202,327.872 264.506,357.646 "/>
<polygon fill="#48BA7F" points="308.591,327.872 293.896,357.646 279.201,327.872 "/>
<polygon fill="#7181BF" points="323.286,357.646 308.591,327.872 293.896,357.646 "/>
<polygon fill="#48BA7F" points="337.98,327.872 323.286,357.646 308.591,327.872 "/>
<polygon fill="#7181BF" points="352.675,357.646 337.981,327.872 323.286,357.646 "/>
<polygon fill="#48BA7F" points="367.37,327.872 352.675,357.646 337.98,327.872 "/>
<polygon fill="#7181BF" points="382.065,357.646 367.37,327.872 352.675,357.646 "/>
<polygon fill="#48BA7F" points="396.76,327.872 382.065,357.646 367.37,327.872 "/>
<polygon fill="#7181BF" points="411.454,357.646 396.761,327.872 382.065,357.646 "/>
<polygon fill="#48BA7F" points="426.149,327.872 411.454,357.646 396.76,327.872 "/>
<polygon fill="#7181BF" points="440.845,357.646 426.149,327.872 411.454,357.646 "/>
<polygon fill="#48BA7F" points="455.539,327.872 440.845,357.646 426.149,327.872 "/>
<polygon fill="#7181BF" points="470.233,357.646 455.54,327.872 440.845,357.646 "/>
<polygon fill="#48BA7F" points="484.929,327.872 470.233,357.646 455.539,327.872 "/>
<polygon fill="#7181BF" points="499.624,357.646 484.929,327.872 470.233,357.646 "/>
<polygon fill="#48BA7F" points="514.318,327.872 499.623,357.646 484.929,327.872 "/>
<polygon fill="#7181BF" points="529.014,357.646 514.318,327.872 499.623,357.646 "/>
<polygon fill="#48BA7F" points="543.708,327.872 529.013,357.646 514.318,327.872 "/>
<polygon fill="#7181BF" points="558.403,357.646 543.708,327.872 529.013,357.646 "/>
<polygon fill="#48BA7F" points="573.098,327.872 558.402,357.646 543.708,327.872 "/>
<polygon fill="#7181BF" points="587.793,357.646 573.098,327.872 558.402,357.646 "/>
<polygon fill="#48BA7F" points="602.487,327.872 587.792,357.646 573.098,327.872 "/>
<polygon fill="#7181BF" points="617.183,357.646 602.487,327.872 587.792,357.646 "/>
<polygon fill="#48BA7F" points="631.877,327.872 617.182,357.646 602.487,327.872 "/>
<polygon fill="#7181BF" points="646.572,357.646 631.877,327.872 617.182,357.646 "/>
<polygon fill="#7181BF" points="29.389,357.646 14.695,327.872 0,357.646 "/>
<polygon fill="#48BA7F" points="29.39,357.646 14.695,387.42 0,357.646 "/>
<polygon fill="#7181BF" points="44.084,387.42 29.39,357.646 14.695,387.42 "/>
<polygon fill="#48BA7F" points="58.779,357.646 44.084,387.42 29.39,357.646 "/>
<polygon fill="#7181BF" points="73.474,387.42 58.78,357.646 44.084,387.42 "/>
<polygon fill="#48BA7F" points="88.169,357.646 73.474,387.42 58.779,357.646 "/>
<polygon fill="#7181BF" points="102.864,387.42 88.169,357.646 73.474,387.42 "/>
<polygon fill="#48BA7F" points="117.559,357.646 102.864,387.42 88.169,357.646 "/>
<polygon fill="#7181BF" points="132.253,387.42 117.559,357.646 102.864,387.42 "/>
<polygon fill="#48BA7F" points="146.948,357.646 132.253,387.42 117.559,357.646 "/>
<polygon fill="#7181BF" points="161.643,387.42 146.949,357.646 132.253,387.42 "/>
<polygon fill="#48BA7F" points="176.338,357.646 161.643,387.42 146.948,357.646 "/>
<polygon fill="#7181BF" points="191.033,387.42 176.338,357.646 161.643,387.42 "/>
<polygon fill="#48BA7F" points="205.728,357.646 191.033,387.42 176.338,357.646 "/>
<polygon fill="#7181BF" points="220.422,387.42 205.728,357.646 191.033,387.42 "/>
<polygon fill="#48BA7F" points="235.117,357.646 220.422,387.42 205.728,357.646 "/>
<polygon fill="#7181BF" points="249.812,387.42 235.118,357.646 220.422,387.42 "/>
<polygon fill="#48BA7F" points="264.507,357.646 249.812,387.42 235.117,357.646 "/>
<polygon fill="#7181BF" points="279.201,387.42 264.507,357.646 249.812,387.42 "/>
<polygon fill="#48BA7F" points="293.896,357.646 279.201,387.42 264.507,357.646 "/>
<polygon fill="#7181BF" points="308.592,387.42 293.896,357.646 279.201,387.42 "/>
<polygon fill="#48BA7F" points="323.286,357.646 308.592,387.42 293.896,357.646 "/>
<polygon fill="#7181BF" points="337.98,387.42 323.287,357.646 308.592,387.42 "/>
<polygon fill="#48BA7F" points="352.676,357.646 337.98,387.42 323.286,357.646 "/>
<polygon fill="#7181BF" points="367.371,387.42 352.676,357.646 337.98,387.42 "/>
<polygon fill="#48BA7F" points="382.065,357.646 367.371,387.42 352.676,357.646 "/>
<polygon fill="#7181BF" points="396.76,387.42 382.066,357.646 367.371,387.42 "/>
<polygon fill="#48BA7F" points="411.455,357.646 396.76,387.42 382.065,357.646 "/>
<polygon fill="#7181BF" points="426.15,387.42 411.455,357.646 396.76,387.42 "/>
<polygon fill="#48BA7F" points="440.845,357.646 426.15,387.42 411.455,357.646 "/>
<polygon fill="#7181BF" points="455.539,387.42 440.846,357.646 426.15,387.42 "/>
<polygon fill="#48BA7F" points="470.234,357.646 455.539,387.42 440.845,357.646 "/>
<polygon fill="#7181BF" points="484.93,387.42 470.234,357.646 455.539,387.42 "/>
<polygon fill="#48BA7F" points="499.624,357.646 484.929,387.42 470.234,357.646 "/>
<polygon fill="#7181BF" points="514.319,387.42 499.624,357.646 484.929,387.42 "/>
<polygon fill="#48BA7F" points="529.014,357.646 514.318,387.42 499.624,357.646 "/>
<polygon fill="#7181BF" points="543.709,387.42 529.014,357.646 514.318,387.42 "/>
<polygon fill="#48BA7F" points="558.403,357.646 543.708,387.42 529.014,357.646 "/>
<polygon fill="#7181BF" points="573.099,387.42 558.403,357.646 543.708,387.42 "/>
<polygon fill="#48BA7F" points="587.793,357.646 573.098,387.42 558.403,357.646 "/>
<polygon fill="#7181BF" points="602.488,387.42 587.793,357.646 573.098,387.42 "/>
<polygon fill="#48BA7F" points="617.183,357.646 602.487,387.42 587.793,357.646 "/>
<polygon fill="#7181BF" points="631.878,387.42 617.183,357.646 602.487,387.42 "/>
<polygon fill="#7181BF" points="14.694,387.42 0.001,357.646 -14.695,387.42 "/>
<polygon fill="#48BA7F" points="44.084,387.42 29.389,417.195 14.694,387.42 "/>
<polygon fill="#7181BF" points="58.779,417.195 44.084,387.42 29.389,417.195 "/>
<polygon fill="#48BA7F" points="73.474,387.42 58.779,417.195 44.084,387.42 "/>
<polygon fill="#7181BF" points="88.168,417.195 73.474,387.42 58.779,417.195 "/>
<polygon fill="#48BA7F" points="102.863,387.42 88.168,417.195 73.474,387.42 "/>
<polygon fill="#7181BF" points="117.558,417.195 102.864,387.42 88.168,417.195 "/>
<polygon fill="#48BA7F" points="132.253,387.42 117.558,417.195 102.863,387.42 "/>
<polygon fill="#7181BF" points="146.948,417.195 132.253,387.42 117.558,417.195 "/>
<polygon fill="#48BA7F" points="161.643,387.42 146.948,417.195 132.253,387.42 "/>
<polygon fill="#7181BF" points="176.337,417.195 161.643,387.42 146.948,417.195 "/>
<polygon fill="#48BA7F" points="191.032,387.42 176.337,417.195 161.643,387.42 "/>
<polygon fill="#7181BF" points="205.727,417.195 191.033,387.42 176.337,417.195 "/>
<polygon fill="#48BA7F" points="220.422,387.42 205.727,417.195 191.032,387.42 "/>
<polygon fill="#7181BF" points="235.117,417.195 220.422,387.42 205.727,417.195 "/>
<polygon fill="#48BA7F" points="249.812,387.42 235.117,417.195 220.422,387.42 "/>
<polygon fill="#7181BF" points="264.506,417.195 249.812,387.42 235.117,417.195 "/>
<polygon fill="#48BA7F" points="279.201,387.42 264.506,417.195 249.812,387.42 "/>
<polygon fill="#7181BF" points="293.896,417.195 279.202,387.42 264.506,417.195 "/>
<polygon fill="#48BA7F" points="308.591,387.42 293.896,417.195 279.201,387.42 "/>
<polygon fill="#7181BF" points="323.286,417.195 308.591,387.42 293.896,417.195 "/>
<polygon fill="#48BA7F" points="337.98,387.42 323.286,417.195 308.591,387.42 "/>
<polygon fill="#7181BF" points="352.675,417.195 337.981,387.42 323.286,417.195 "/>
<polygon fill="#48BA7F" points="367.37,387.42 352.675,417.195 337.98,387.42 "/>
<polygon fill="#7181BF" points="382.065,417.195 367.37,387.42 352.675,417.195 "/>
<polygon fill="#48BA7F" points="396.76,387.42 382.065,417.195 367.37,387.42 "/>
<polygon fill="#7181BF" points="411.454,417.195 396.761,387.42 382.065,417.195 "/>
<polygon fill="#48BA7F" points="426.149,387.42 411.454,417.195 396.76,387.42 "/>
<polygon fill="#7181BF" points="440.845,417.195 426.149,387.42 411.454,417.195 "/>
<polygon fill="#48BA7F" points="455.539,387.42 440.845,417.195 426.149,387.42 "/>
<polygon fill="#7181BF" points="470.233,417.195 455.54,387.42 440.845,417.195 "/>
<polygon fill="#48BA7F" points="484.929,387.42 470.233,417.195 455.539,387.42 "/>
<polygon fill="#7181BF" points="499.624,417.195 484.929,387.42 470.233,417.195 "/>
<polygon fill="#48BA7F" points="514.318,387.42 499.623,417.195 484.929,387.42 "/>
<polygon fill="#7181BF" points="529.014,417.195 514.318,387.42 499.623,417.195 "/>
<polygon fill="#48BA7F" points="543.708,387.42 529.013,417.195 514.318,387.42 "/>
<polygon fill="#7181BF" points="558.403,417.195 543.708,387.42 529.013,417.195 "/>
<polygon fill="#48BA7F" points="573.098,387.42 558.402,417.195 543.708,387.42 "/>
<polygon fill="#7181BF" points="587.793,417.195 573.098,387.42 558.402,417.195 "/>
<polygon fill="#48BA7F" points="602.487,387.42 587.792,417.195 573.098,387.42 "/>
<polygon fill="#7181BF" points="617.183,417.195 602.487,387.42 587.792,417.195 "/>
<polygon fill="#48BA7F" points="631.877,387.42 617.182,417.195 602.487,387.42 "/>
<polygon fill="#7181BF" points="646.572,417.195 631.877,387.42 617.182,417.195 "/>
<polygon fill="#7181BF" points="29.389,417.195 14.695,387.42 0,417.195 "/>
<polygon fill="#48BA7F" points="29.39,417.195 14.695,446.969 0,417.195 "/>
<polygon fill="#7181BF" points="44.084,446.969 29.39,417.195 14.695,446.969 "/>
<polygon fill="#48BA7F" points="58.779,417.195 44.084,446.969 29.39,417.195 "/>
<polygon fill="#7181BF" points="73.474,446.969 58.78,417.195 44.084,446.969 "/>
<polygon fill="#48BA7F" points="88.169,417.195 73.474,446.969 58.779,417.195 "/>
<polygon fill="#7181BF" points="102.864,446.969 88.169,417.195 73.474,446.969 "/>
<polygon fill="#48BA7F" points="117.559,417.195 102.864,446.969 88.169,417.195 "/>
<polygon fill="#7181BF" points="132.253,446.969 117.559,417.195 102.864,446.969 "/>
<polygon fill="#48BA7F" points="146.948,417.195 132.253,446.969 117.559,417.195 "/>
<polygon fill="#7181BF" points="161.643,446.969 146.949,417.195 132.253,446.969 "/>
<polygon fill="#48BA7F" points="176.338,417.195 161.643,446.969 146.948,417.195 "/>
<polygon fill="#7181BF" points="191.033,446.969 176.338,417.195 161.643,446.969 "/>
<polygon fill="#48BA7F" points="205.728,417.195 191.033,446.969 176.338,417.195 "/>
<polygon fill="#7181BF" points="220.422,446.969 205.728,417.195 191.033,446.969 "/>
<polygon fill="#48BA7F" points="235.117,417.195 220.422,446.969 205.728,417.195 "/>
<polygon fill="#7181BF" points="249.812,446.969 235.118,417.195 220.422,446.969 "/>
<polygon fill="#48BA7F" points="264.507,417.195 249.812,446.969 235.117,417.195 "/>
<polygon fill="#7181BF" points="279.201,446.969 264.507,417.195 249.812,446.969 "/>
<polygon fill="#48BA7F" points="293.896,417.195 279.201,446.969 264.507,417.195 "/>
<polygon fill="#7181BF" points="308.592,446.969 293.896,417.195 279.201,446.969 "/>
<polygon fill="#48BA7F" points="323.286,417.195 308.592,446.969 293.896,417.195 "/>
<polygon fill="#7181BF" points="337.98,446.969 323.287,417.195 308.592,446.969 "/>
<polygon fill="#48BA7F" points="352.676,417.195 337.98,446.969 323.286,417.195 "/>
<polygon fill="#7181BF" points="367.371,446.969 352.676,417.195 337.98,446.969 "/>
<polygon fill="#48BA7F" points="382.065,417.195 367.371,446.969 352.676,417.195 "/>
<polygon fill="#7181BF" points="396.76,446.969 382.066,417.195 367.371,446.969 "/>
<polygon fill="#48BA7F" points="411.455,417.195 396.76,446.969 382.065,417.195 "/>
<polygon fill="#7181BF" points="426.15,446.969 411.455,417.195 396.76,446.969 "/>
<polygon fill="#48BA7F" points="440.845,417.195 426.15,446.969 411.455,417.195 "/>
<polygon fill="#7181BF" points="455.539,446.969 440.846,417.195 426.15,446.969 "/>
<polygon fill="#48BA7F" points="470.234,417.195 455.539,446.969 440.845,417.195 "/>
<polygon fill="#7181BF" points="484.93,446.969 470.234,417.195 455.539,446.969 "/>
<polygon fill="#48BA7F" points="499.624,417.195 484.929,446.969 470.234,417.195 "/>
<polygon fill="#7181BF" points="514.319,446.969 499.624,417.195 484.929,446.969 "/>
<polygon fill="#48BA7F" points="529.014,417.195 514.318,446.969 499.624,417.195 "/>
<polygon fill="#7181BF" points="543.709,446.969 529.014,417.195 514.318,446.969 "/>
<polygon fill="#48BA7F" points="558.403,417.195 543.708,446.969 529.014,417.195 "/>
<polygon fill="#7181BF" points="573.099,446.969 558.403,417.195 543.708,446.969 "/>
<polygon fill="#48BA7F" points="587.793,417.195 573.098,446.969 558.403,417.195 "/>
<polygon fill="#7181BF" points="602.488,446.969 587.793,417.195 573.098,446.969 "/>
<polygon fill="#48BA7F" points="617.183,417.195 602.487,446.969 587.793,417.195 "/>
<polygon fill="#7181BF" points="631.878,446.969 617.183,417.195 602.487,446.969 "/>
<polygon fill="#7181BF" points="14.694,446.969 0.001,417.195 -14.695,446.969 "/>
<polygon fill="#48BA7F" points="44.084,446.969 29.389,476.744 14.694,446.969 "/>
<polygon fill="#7181BF" points="58.779,476.744 44.084,446.969 29.389,476.744 "/>
<polygon fill="#48BA7F" points="73.474,446.969 58.779,476.744 44.084,446.969 "/>
<polygon fill="#7181BF" points="88.168,476.744 73.474,446.969 58.779,476.744 "/>
<polygon fill="#48BA7F" points="102.863,446.969 88.168,476.744 73.474,446.969 "/>
<polygon fill="#7181BF" points="117.558,476.744 102.864,446.969 88.168,476.744 "/>
<polygon fill="#48BA7F" points="132.253,446.969 117.558,476.744 102.863,446.969 "/>
<polygon fill="#7181BF" points="146.948,476.744 132.253,446.969 117.558,476.744 "/>
<polygon fill="#48BA7F" points="161.643,446.969 146.948,476.744 132.253,446.969 "/>
<polygon fill="#7181BF" points="176.337,476.744 161.643,446.969 146.948,476.744 "/>
<polygon fill="#48BA7F" points="191.032,446.969 176.337,476.744 161.643,446.969 "/>
<polygon fill="#7181BF" points="205.727,476.744 191.033,446.969 176.337,476.744 "/>
<polygon fill="#48BA7F" points="220.422,446.969 205.727,476.744 191.032,446.969 "/>
<polygon fill="#7181BF" points="235.117,476.744 220.422,446.969 205.727,476.744 "/>
<polygon fill="#48BA7F" points="249.812,446.969 235.117,476.744 220.422,446.969 "/>
<polygon fill="#7181BF" points="264.506,476.744 249.812,446.969 235.117,476.744 "/>
<polygon fill="#48BA7F" points="279.201,446.969 264.506,476.744 249.812,446.969 "/>
<polygon fill="#7181BF" points="293.896,476.744 279.202,446.969 264.506,476.744 "/>
<polygon fill="#48BA7F" points="308.591,446.969 293.896,476.744 279.201,446.969 "/>
<polygon fill="#7181BF" points="323.286,476.744 308.591,446.969 293.896,476.744 "/>
<polygon fill="#48BA7F" points="337.98,446.969 323.286,476.744 308.591,446.969 "/>
<polygon fill="#7181BF" points="352.675,476.744 337.981,446.969 323.286,476.744 "/>
<polygon fill="#48BA7F" points="367.37,446.969 352.675,476.744 337.98,446.969 "/>
<polygon fill="#7181BF" points="382.065,476.744 367.37,446.969 352.675,476.744 "/>
<polygon fill="#48BA7F" points="396.76,446.969 382.065,476.744 367.37,446.969 "/>
<polygon fill="#7181BF" points="411.454,476.744 396.761,446.969 382.065,476.744 "/>
<polygon fill="#48BA7F" points="426.149,446.969 411.454,476.744 396.76,446.969 "/>
<polygon fill="#7181BF" points="440.845,476.744 426.149,446.969 411.454,476.744 "/>
<polygon fill="#48BA7F" points="455.539,446.969 440.845,476.744 426.149,446.969 "/>
<polygon fill="#7181BF" points="470.233,476.744 455.54,446.969 440.845,476.744 "/>
<polygon fill="#48BA7F" points="484.929,446.969 470.233,476.744 455.539,446.969 "/>
<polygon fill="#7181BF" points="499.624,476.744 484.929,446.969 470.233,476.744 "/>
<polygon fill="#48BA7F" points="514.318,446.969 499.623,476.744 484.929,446.969 "/>
<polygon fill="#7181BF" points="529.014,476.744 514.318,446.969 499.623,476.744 "/>
<polygon fill="#48BA7F" points="543.708,446.969 529.013,476.744 514.318,446.969 "/>
<polygon fill="#7181BF" points="558.403,476.744 543.708,446.969 529.013,476.744 "/>
<polygon fill="#48BA7F" points="573.098,446.969 558.402,476.744 543.708,446.969 "/>
<polygon fill="#7181BF" points="587.793,476.744 573.098,446.969 558.402,476.744 "/>
<polygon fill="#48BA7F" points="602.487,446.969 587.792,476.744 573.098,446.969 "/>
<polygon fill="#7181BF" points="617.183,476.744 602.487,446.969 587.792,476.744 "/>
<polygon fill="#48BA7F" points="631.877,446.969 617.182,476.744 602.487,446.969 "/>
<polygon fill="#7181BF" points="646.572,476.744 631.877,446.969 617.182,476.744 "/>
<polygon fill="#7181BF" points="29.389,476.744 14.695,446.969 0,476.744 "/>
<polygon fill="#48BA7F" points="29.39,476.744 14.695,506.518 0,476.744 "/>
<polygon fill="#7181BF" points="44.084,506.518 29.39,476.744 14.695,506.518 "/>
<polygon fill="#48BA7F" points="58.779,476.744 44.084,506.518 29.39,476.744 "/>
<polygon fill="#7181BF" points="73.474,506.518 58.78,476.744 44.084,506.518 "/>
<polygon fill="#48BA7F" points="88.169,476.744 73.474,506.518 58.779,476.744 "/>
<polygon fill="#7181BF" points="102.864,506.518 88.169,476.744 73.474,506.518 "/>
<polygon fill="#48BA7F" points="117.559,476.744 102.864,506.518 88.169,476.744 "/>
<polygon fill="#7181BF" points="132.253,506.518 117.559,476.744 102.864,506.518 "/>
<polygon fill="#48BA7F" points="146.948,476.744 132.253,506.518 117.559,476.744 "/>
<polygon fill="#7181BF" points="161.643,506.518 146.949,476.744 132.253,506.518 "/>
<polygon fill="#48BA7F" points="176.338,476.744 161.643,506.518 146.948,476.744 "/>
<polygon fill="#7181BF" points="191.033,506.518 176.338,476.744 161.643,506.518 "/>
<polygon fill="#48BA7F" points="205.728,476.744 191.033,506.518 176.338,476.744 "/>
<polygon fill="#7181BF" points="220.422,506.518 205.728,476.744 191.033,506.518 "/>
<polygon fill="#48BA7F" points="235.117,476.744 220.422,506.518 205.728,476.744 "/>
<polygon fill="#7181BF" points="249.812,506.518 235.118,476.744 220.422,506.518 "/>
<polygon fill="#48BA7F" points="264.507,476.744 249.812,506.518 235.117,476.744 "/>
<polygon fill="#7181BF" points="279.201,506.518 264.508,476.744 249.812,506.518 "/>
<polygon fill="#48BA7F" points="293.896,476.744 279.201,506.518 264.507,476.744 "/>
<polygon fill="#7181BF" points="308.592,506.518 293.896,476.744 279.201,506.518 "/>
<polygon fill="#48BA7F" points="323.286,476.744 308.592,506.518 293.896,476.744 "/>
<polygon fill="#7181BF" points="337.98,506.518 323.287,476.744 308.592,506.518 "/>
<polygon fill="#48BA7F" points="352.676,476.744 337.98,506.518 323.286,476.744 "/>
<polygon fill="#7181BF" points="367.371,506.518 352.676,476.744 337.98,506.518 "/>
<polygon fill="#48BA7F" points="382.065,476.744 367.371,506.518 352.676,476.744 "/>
<polygon fill="#7181BF" points="396.76,506.518 382.066,476.744 367.371,506.518 "/>
<polygon fill="#48BA7F" points="411.455,476.744 396.76,506.518 382.065,476.744 "/>
<polygon fill="#7181BF" points="426.15,506.518 411.455,476.744 396.76,506.518 "/>
<polygon fill="#48BA7F" points="440.845,476.744 426.15,506.518 411.455,476.744 "/>
<polygon fill="#7181BF" points="455.539,506.518 440.846,476.744 426.15,506.518 "/>
<polygon fill="#48BA7F" points="470.234,476.744 455.539,506.518 440.845,476.744 "/>
<polygon fill="#7181BF" points="484.93,506.518 470.234,476.744 455.539,506.518 "/>
<polygon fill="#48BA7F" points="499.624,476.744 484.929,506.518 470.234,476.744 "/>
<polygon fill="#7181BF" points="514.319,506.518 499.624,476.744 484.929,506.518 "/>
<polygon fill="#48BA7F" points="529.014,476.744 514.318,506.518 499.624,476.744 "/>
<polygon fill="#7181BF" points="543.709,506.518 529.014,476.744 514.318,506.518 "/>
<polygon fill="#48BA7F" points="558.403,476.744 543.708,506.518 529.014,476.744 "/>
<polygon fill="#7181BF" points="573.099,506.518 558.403,476.744 543.708,506.518 "/>
<polygon fill="#48BA7F" points="587.793,476.744 573.098,506.518 558.403,476.744 "/>
<polygon fill="#7181BF" points="602.488,506.518 587.793,476.744 573.098,506.518 "/>
<polygon fill="#48BA7F" points="617.183,476.744 602.487,506.518 587.793,476.744 "/>
<polygon fill="#7181BF" points="631.878,506.518 617.183,476.744 602.487,506.518 "/>
<polygon fill="#7181BF" points="14.694,506.518 0.001,476.744 -14.695,506.518 "/>
<polygon fill="#48BA7F" points="44.084,506.518 29.389,536.293 14.694,506.518 "/>
<polygon fill="#7181BF" points="58.779,536.293 44.084,506.518 29.389,536.293 "/>
<polygon fill="#48BA7F" points="73.474,506.518 58.779,536.293 44.084,506.518 "/>
<polygon fill="#7181BF" points="88.168,536.293 73.474,506.518 58.779,536.293 "/>
<polygon fill="#48BA7F" points="102.863,506.518 88.168,536.293 73.474,506.518 "/>
<polygon fill="#7181BF" points="117.558,536.293 102.864,506.518 88.168,536.293 "/>
<polygon fill="#48BA7F" points="132.253,506.518 117.558,536.293 102.863,506.518 "/>
<polygon fill="#7181BF" points="146.948,536.293 132.253,506.518 117.558,536.293 "/>
<polygon fill="#48BA7F" points="161.643,506.518 146.948,536.293 132.253,506.518 "/>
<polygon fill="#7181BF" points="176.337,536.293 161.643,506.518 146.948,536.293 "/>
<polygon fill="#48BA7F" points="191.032,506.518 176.337,536.293 161.643,506.518 "/>
<polygon fill="#7181BF" points="205.727,536.293 191.033,506.518 176.337,536.293 "/>
<polygon fill="#48BA7F" points="220.422,506.518 205.727,536.293 191.032,506.518 "/>
<polygon fill="#7181BF" points="235.117,536.293 220.422,506.518 205.727,536.293 "/>
<polygon fill="#48BA7F" points="249.812,506.518 235.117,536.293 220.422,506.518 "/>
<polygon fill="#7181BF" points="264.506,536.293 249.812,506.518 235.117,536.293 "/>
<polygon fill="#48BA7F" points="279.201,506.518 264.506,536.293 249.812,506.518 "/>
<polygon fill="#7181BF" points="293.896,536.293 279.202,506.518 264.506,536.293 "/>
<polygon fill="#48BA7F" points="308.591,506.518 293.896,536.293 279.201,506.518 "/>
<polygon fill="#7181BF" points="323.286,536.293 308.591,506.518 293.896,536.293 "/>
<polygon fill="#48BA7F" points="337.98,506.518 323.286,536.293 308.591,506.518 "/>
<polygon fill="#7181BF" points="352.675,536.293 337.981,506.518 323.286,536.293 "/>
<polygon fill="#48BA7F" points="367.37,506.518 352.675,536.293 337.98,506.518 "/>
<polygon fill="#7181BF" points="382.065,536.293 367.37,506.518 352.675,536.293 "/>
<polygon fill="#48BA7F" points="396.76,506.518 382.065,536.293 367.37,506.518 "/>
<polygon fill="#7181BF" points="411.454,536.293 396.761,506.518 382.065,536.293 "/>
<polygon fill="#48BA7F" points="426.149,506.518 411.454,536.293 396.76,506.518 "/>
<polygon fill="#7181BF" points="440.845,536.293 426.149,506.518 411.454,536.293 "/>
<polygon fill="#48BA7F" points="455.539,506.518 440.845,536.293 426.149,506.518 "/>
<polygon fill="#7181BF" points="470.233,536.293 455.54,506.518 440.845,536.293 "/>
<polygon fill="#48BA7F" points="484.929,506.518 470.233,536.293 455.539,506.518 "/>
<polygon fill="#7181BF" points="499.624,536.293 484.929,506.518 470.233,536.293 "/>
<polygon fill="#48BA7F" points="514.318,506.518 499.623,536.293 484.929,506.518 "/>
<polygon fill="#7181BF" points="529.014,536.293 514.318,506.518 499.623,536.293 "/>
<polygon fill="#48BA7F" points="543.708,506.518 529.013,536.293 514.318,506.518 "/>
<polygon fill="#7181BF" points="558.403,536.293 543.708,506.518 529.013,536.293 "/>
<polygon fill="#48BA7F" points="573.098,506.518 558.402,536.293 543.708,506.518 "/>
<polygon fill="#7181BF" points="587.793,536.293 573.098,506.518 558.402,536.293 "/>
<polygon fill="#48BA7F" points="602.487,506.518 587.792,536.293 573.098,506.518 "/>
<polygon fill="#7181BF" points="617.183,536.293 602.487,506.518 587.792,536.293 "/>
<polygon fill="#48BA7F" points="631.877,506.518 617.182,536.293 602.487,506.518 "/>
<polygon fill="#7181BF" points="646.572,536.293 631.877,506.518 617.182,536.293 "/>
<polygon fill="#7181BF" points="29.389,536.293 14.695,506.518 0,536.293 "/>
<polygon fill="#48BA7F" points="29.39,536.293 14.695,566.066 0,536.293 "/>
<polygon fill="#7181BF" points="44.084,566.066 29.39,536.293 14.695,566.066 "/>
<polygon fill="#48BA7F" points="58.779,536.293 44.084,566.066 29.39,536.293 "/>
<polygon fill="#7181BF" points="73.474,566.066 58.78,536.293 44.084,566.066 "/>
<polygon fill="#48BA7F" points="88.169,536.293 73.474,566.066 58.779,536.293 "/>
<polygon fill="#7181BF" points="102.864,566.066 88.169,536.293 73.474,566.066 "/>
<polygon fill="#48BA7F" points="117.559,536.293 102.864,566.066 88.169,536.293 "/>
<polygon fill="#7181BF" points="132.253,566.066 117.559,536.293 102.864,566.066 "/>
<polygon fill="#48BA7F" points="146.948,536.293 132.253,566.066 117.559,536.293 "/>
<polygon fill="#7181BF" points="161.643,566.066 146.949,536.293 132.253,566.066 "/>
<polygon fill="#48BA7F" points="176.338,536.293 161.643,566.066 146.948,536.293 "/>
<polygon fill="#7181BF" points="191.033,566.066 176.338,536.293 161.643,566.066 "/>
<polygon fill="#48BA7F" points="205.728,536.293 191.033,566.066 176.338,536.293 "/>
<polygon fill="#7181BF" points="220.422,566.066 205.728,536.293 191.033,566.066 "/>
<polygon fill="#48BA7F" points="235.117,536.293 220.422,566.066 205.728,536.293 "/>
<polygon fill="#7181BF" points="249.812,566.066 235.118,536.293 220.422,566.066 "/>
<polygon fill="#48BA7F" points="264.507,536.293 249.812,566.066 235.117,536.293 "/>
<polygon fill="#7181BF" points="279.201,566.066 264.508,536.293 249.812,566.066 "/>
<polygon fill="#48BA7F" points="293.896,536.293 279.201,566.066 264.507,536.293 "/>
<polygon fill="#7181BF" points="308.592,566.066 293.896,536.293 279.201,566.066 "/>
<polygon fill="#48BA7F" points="323.286,536.293 308.592,566.066 293.896,536.293 "/>
<polygon fill="#7181BF" points="337.98,566.066 323.287,536.293 308.592,566.066 "/>
<polygon fill="#48BA7F" points="352.676,536.293 337.98,566.066 323.286,536.293 "/>
<polygon fill="#7181BF" points="367.371,566.066 352.676,536.293 337.98,566.066 "/>
<polygon fill="#48BA7F" points="382.065,536.293 367.371,566.066 352.676,536.293 "/>
<polygon fill="#7181BF" points="396.76,566.066 382.066,536.293 367.371,566.066 "/>
<polygon fill="#48BA7F" points="411.455,536.293 396.76,566.066 382.065,536.293 "/>
<polygon fill="#7181BF" points="426.15,566.066 411.455,536.293 396.76,566.066 "/>
<polygon fill="#48BA7F" points="440.845,536.293 426.15,566.066 411.455,536.293 "/>
<polygon fill="#7181BF" points="455.539,566.066 440.846,536.293 426.15,566.066 "/>
<polygon fill="#48BA7F" points="470.234,536.293 455.539,566.066 440.845,536.293 "/>
<polygon fill="#7181BF" points="484.93,566.066 470.234,536.293 455.539,566.066 "/>
<polygon fill="#48BA7F" points="499.624,536.293 484.929,566.066 470.234,536.293 "/>
<polygon fill="#7181BF" points="514.319,566.066 499.624,536.293 484.929,566.066 "/>
<polygon fill="#48BA7F" points="529.014,536.293 514.318,566.066 499.624,536.293 "/>
<polygon fill="#7181BF" points="543.709,566.066 529.014,536.293 514.318,566.066 "/>
<polygon fill="#48BA7F" points="558.403,536.293 543.708,566.066 529.014,536.293 "/>
<polygon fill="#7181BF" points="573.099,566.066 558.403,536.293 543.708,566.066 "/>
<polygon fill="#48BA7F" points="587.793,536.293 573.098,566.066 558.403,536.293 "/>
<polygon fill="#7181BF" points="602.488,566.066 587.793,536.293 573.098,566.066 "/>
<polygon fill="#48BA7F" points="617.183,536.293 602.487,566.066 587.793,536.293 "/>
<polygon fill="#7181BF" points="631.878,566.066 617.183,536.293 602.487,566.066 "/>
<polygon fill="#7181BF" points="14.694,566.066 0.001,536.293 -14.695,566.066 "/>
<polygon fill="#48BA7F" points="44.084,566.066 29.389,595.842 14.694,566.066 "/>
<polygon fill="#7181BF" points="58.779,595.842 44.084,566.066 29.389,595.842 "/>
<polygon fill="#48BA7F" points="73.474,566.066 58.779,595.842 44.084,566.066 "/>
<polygon fill="#7181BF" points="88.168,595.842 73.474,566.066 58.779,595.842 "/>
<polygon fill="#48BA7F" points="102.863,566.066 88.168,595.842 73.474,566.066 "/>
<polygon fill="#7181BF" points="117.558,595.842 102.864,566.066 88.168,595.842 "/>
<polygon fill="#48BA7F" points="132.253,566.066 117.558,595.842 102.863,566.066 "/>
<polygon fill="#7181BF" points="146.948,595.842 132.253,566.066 117.558,595.842 "/>
<polygon fill="#48BA7F" points="161.643,566.066 146.948,595.842 132.253,566.066 "/>
<polygon fill="#7181BF" points="176.337,595.842 161.643,566.066 146.948,595.842 "/>
<polygon fill="#48BA7F" points="191.032,566.066 176.337,595.842 161.643,566.066 "/>
<polygon fill="#7181BF" points="205.727,595.842 191.033,566.066 176.337,595.842 "/>
<polygon fill="#48BA7F" points="220.422,566.066 205.727,595.842 191.032,566.066 "/>
<polygon fill="#7181BF" points="235.117,595.842 220.422,566.066 205.727,595.842 "/>
<polygon fill="#48BA7F" points="249.812,566.066 235.117,595.842 220.422,566.066 "/>
<polygon fill="#7181BF" points="264.506,595.842 249.812,566.066 235.117,595.842 "/>
<polygon fill="#48BA7F" points="279.201,566.066 264.506,595.842 249.812,566.066 "/>
<polygon fill="#7181BF" points="293.896,595.842 279.202,566.066 264.506,595.842 "/>
<polygon fill="#48BA7F" points="308.591,566.066 293.896,595.842 279.201,566.066 "/>
<polygon fill="#7181BF" points="323.286,595.842 308.591,566.066 293.896,595.842 "/>
<polygon fill="#48BA7F" points="337.98,566.066 323.286,595.842 308.591,566.066 "/>
<polygon fill="#7181BF" points="352.675,595.842 337.981,566.066 323.286,595.842 "/>
<polygon fill="#48BA7F" points="367.37,566.066 352.675,595.842 337.98,566.066 "/>
<polygon fill="#7181BF" points="382.065,595.842 367.37,566.066 352.675,595.842 "/>
<polygon fill="#48BA7F" points="396.76,566.066 382.065,595.842 367.37,566.066 "/>
<polygon fill="#7181BF" points="411.454,595.842 396.761,566.066 382.065,595.842 "/>
<polygon fill="#48BA7F" points="426.149,566.066 411.454,595.842 396.76,566.066 "/>
<polygon fill="#7181BF" points="440.845,595.842 426.149,566.066 411.454,595.842 "/>
<polygon fill="#48BA7F" points="455.539,566.066 440.845,595.842 426.149,566.066 "/>
<polygon fill="#7181BF" points="470.233,595.842 455.54,566.066 440.845,595.842 "/>
<polygon fill="#48BA7F" points="484.929,566.066 470.233,595.842 455.539,566.066 "/>
<polygon fill="#7181BF" points="499.624,595.842 484.929,566.066 470.233,595.842 "/>
<polygon fill="#48BA7F" points="514.318,566.066 499.623,595.842 484.929,566.066 "/>
<polygon fill="#7181BF" points="529.014,595.842 514.318,566.066 499.623,595.842 "/>
<polygon fill="#48BA7F" points="543.708,566.066 529.013,595.842 514.318,566.066 "/>
<polygon fill="#7181BF" points="558.403,595.842 543.708,566.066 529.013,595.842 "/>
<polygon fill="#48BA7F" points="573.098,566.066 558.402,595.842 543.708,566.066 "/>
<polygon fill="#7181BF" points="587.793,595.842 573.098,566.066 558.402,595.842 "/>
<polygon fill="#48BA7F" points="602.487,566.066 587.792,595.842 573.098,566.066 "/>
<polygon fill="#7181BF" points="617.183,595.842 602.487,566.066 587.792,595.842 "/>
<polygon fill="#48BA7F" points="631.877,566.066 617.182,595.842 602.487,566.066 "/>
<polygon fill="#7181BF" points="646.572,595.842 631.877,566.066 617.182,595.842 "/>
<polygon fill="#7181BF" points="29.389,595.842 14.695,566.066 0,595.842 "/>
<polygon fill="#48BA7F" points="29.39,595.842 14.695,625.615 0,595.842 "/>
<polygon fill="#7181BF" points="44.084,625.615 29.39,595.842 14.695,625.615 "/>
<polygon fill="#48BA7F" points="58.779,595.842 44.084,625.615 29.39,595.842 "/>
<polygon fill="#7181BF" points="73.474,625.615 58.78,595.842 44.084,625.615 "/>
<polygon fill="#48BA7F" points="88.169,595.842 73.474,625.615 58.779,595.842 "/>
<polygon fill="#7181BF" points="102.864,625.615 88.169,595.842 73.474,625.615 "/>
<polygon fill="#48BA7F" points="117.559,595.842 102.864,625.615 88.169,595.842 "/>
<polygon fill="#7181BF" points="132.253,625.615 117.559,595.842 102.864,625.615 "/>
<polygon fill="#48BA7F" points="146.948,595.842 132.253,625.615 117.559,595.842 "/>
<polygon fill="#7181BF" points="161.643,625.615 146.949,595.842 132.253,625.615 "/>
<polygon fill="#48BA7F" points="176.338,595.842 161.643,625.615 146.948,595.842 "/>
<polygon fill="#7181BF" points="191.033,625.615 176.338,595.842 161.643,625.615 "/>
<polygon fill="#48BA7F" points="205.728,595.842 191.033,625.615 176.338,595.842 "/>
<polygon fill="#7181BF" points="220.422,625.615 205.728,595.842 191.033,625.615 "/>
<polygon fill="#48BA7F" points="235.117,595.842 220.422,625.615 205.728,595.842 "/>
<polygon fill="#7181BF" points="249.812,625.615 235.118,595.842 220.422,625.615 "/>
<polygon fill="#48BA7F" points="264.507,595.842 249.812,625.615 235.117,595.842 "/>
<polygon fill="#7181BF" points="279.201,625.615 264.508,595.842 249.812,625.615 "/>
<polygon fill="#48BA7F" points="293.896,595.842 279.201,625.615 264.507,595.842 "/>
<polygon fill="#7181BF" points="308.592,625.615 293.896,595.842 279.201,625.615 "/>
<polygon fill="#48BA7F" points="323.286,595.842 308.592,625.615 293.896,595.842 "/>
<polygon fill="#7181BF" points="337.98,625.615 323.287,595.842 308.592,625.615 "/>
<polygon fill="#48BA7F" points="352.676,595.842 337.98,625.615 323.286,595.842 "/>
<polygon fill="#7181BF" points="367.371,625.615 352.676,595.842 337.98,625.615 "/>
<polygon fill="#48BA7F" points="382.065,595.842 367.371,625.615 352.676,595.842 "/>
<polygon fill="#7181BF" points="396.76,625.615 382.066,595.842 367.371,625.615 "/>
<polygon fill="#48BA7F" points="411.455,595.842 396.76,625.615 382.065,595.842 "/>
<polygon fill="#7181BF" points="426.15,625.615 411.455,595.842 396.76,625.615 "/>
<polygon fill="#48BA7F" points="440.845,595.842 426.15,625.615 411.455,595.842 "/>
<polygon fill="#7181BF" points="455.539,625.615 440.846,595.842 426.15,625.615 "/>
<polygon fill="#48BA7F" points="470.234,595.842 455.539,625.615 440.845,595.842 "/>
<polygon fill="#7181BF" points="484.93,625.615 470.234,595.842 455.539,625.615 "/>
<polygon fill="#48BA7F" points="499.624,595.842 484.929,625.615 470.234,595.842 "/>
<polygon fill="#7181BF" points="514.319,625.615 499.624,595.842 484.929,625.615 "/>
<polygon fill="#48BA7F" points="529.014,595.842 514.318,625.615 499.624,595.842 "/>
<polygon fill="#7181BF" points="543.709,625.615 529.014,595.842 514.318,625.615 "/>
<polygon fill="#48BA7F" points="558.403,595.842 543.708,625.615 529.014,595.842 "/>
<polygon fill="#7181BF" points="573.099,625.615 558.403,595.842 543.708,625.615 "/>
<polygon fill="#48BA7F" points="587.793,595.842 573.098,625.615 558.403,595.842 "/>
<polygon fill="#7181BF" points="602.488,625.615 587.793,595.842 573.098,625.615 "/>
<polygon fill="#48BA7F" points="617.183,595.842 602.487,625.615 587.793,595.842 "/>
<polygon fill="#7181BF" points="631.878,625.615 617.183,595.842 602.487,625.615 "/>
<polygon fill="#7181BF" points="14.694,625.615 0.001,595.842 -14.695,625.615 "/>
<polygon fill="#48BA7F" points="44.084,625.615 29.389,655.391 14.694,625.615 "/>
<polygon fill="#7181BF" points="58.779,655.391 44.084,625.615 29.389,655.391 "/>
<polygon fill="#48BA7F" points="73.474,625.615 58.779,655.391 44.084,625.615 "/>
<polygon fill="#7181BF" points="88.168,655.391 73.474,625.615 58.779,655.391 "/>
<polygon fill="#48BA7F" points="102.863,625.615 88.168,655.391 73.474,625.615 "/>
<polygon fill="#7181BF" points="117.558,655.391 102.864,625.615 88.168,655.391 "/>
<polygon fill="#48BA7F" points="132.253,625.615 117.558,655.391 102.863,625.615 "/>
<polygon fill="#7181BF" points="146.948,655.391 132.253,625.615 117.558,655.391 "/>
<polygon fill="#48BA7F" points="161.643,625.615 146.948,655.391 132.253,625.615 "/>
<polygon fill="#7181BF" points="176.337,655.391 161.643,625.615 146.948,655.391 "/>
<polygon fill="#48BA7F" points="191.032,625.615 176.337,655.391 161.643,625.615 "/>
<polygon fill="#7181BF" points="205.727,655.391 191.033,625.615 176.337,655.391 "/>
<polygon fill="#48BA7F" points="220.422,625.615 205.727,655.391 191.032,625.615 "/>
<polygon fill="#7181BF" points="235.117,655.391 220.422,625.615 205.727,655.391 "/>
<polygon fill="#48BA7F" points="249.812,625.615 235.117,655.391 220.422,625.615 "/>
<polygon fill="#7181BF" points="264.506,655.391 249.812,625.615 235.117,655.391 "/>
<polygon fill="#48BA7F" points="279.201,625.615 264.506,655.391 249.812,625.615 "/>
<polygon fill="#7181BF" points="293.896,655.391 279.202,625.615 264.506,655.391 "/>
<polygon fill="#48BA7F" points="308.591,625.615 293.896,655.391 279.201,625.615 "/>
<polygon fill="#7181BF" points="323.286,655.391 308.591,625.615 293.896,655.391 "/>
<polygon fill="#48BA7F" points="337.98,625.615 323.286,655.391 308.591,625.615 "/>
<polygon fill="#7181BF" points="352.675,655.391 337.981,625.615 323.286,655.391 "/>
<polygon fill="#48BA7F" points="367.37,625.615 352.675,655.391 337.98,625.615 "/>
<polygon fill="#7181BF" points="382.065,655.391 367.37,625.615 352.675,655.391 "/>
<polygon fill="#48BA7F" points="396.76,625.615 382.065,655.391 367.37,625.615 "/>
<polygon fill="#7181BF" points="411.454,655.391 396.761,625.615 382.065,655.391 "/>
<polygon fill="#48BA7F" points="426.149,625.615 411.454,655.391 396.76,625.615 "/>
<polygon fill="#7181BF" points="440.845,655.391 426.149,625.615 411.454,655.391 "/>
<polygon fill="#48BA7F" points="455.539,625.615 440.845,655.391 426.149,625.615 "/>
<polygon fill="#7181BF" points="470.233,655.391 455.54,625.615 440.845,655.391 "/>
<polygon fill="#48BA7F" points="484.929,625.615 470.233,655.391 455.539,625.615 "/>
<polygon fill="#7181BF" points="499.624,655.391 484.929,625.615 470.233,655.391 "/>
<polygon fill="#48BA7F" points="514.318,625.615 499.623,655.391 484.929,625.615 "/>
<polygon fill="#7181BF" points="529.014,655.391 514.318,625.615 499.623,655.391 "/>
<polygon fill="#48BA7F" points="543.708,625.615 529.013,655.391 514.318,625.615 "/>
<polygon fill="#7181BF" points="558.403,655.391 543.708,625.615 529.013,655.391 "/>
<polygon fill="#48BA7F" points="573.098,625.615 558.402,655.391 543.708,625.615 "/>
<polygon fill="#7181BF" points="587.793,655.391 573.098,625.615 558.402,655.391 "/>
<polygon fill="#48BA7F" points="602.487,625.615 587.792,655.391 573.098,625.615 "/>
<polygon fill="#7181BF" points="617.183,655.391 602.487,625.615 587.792,655.391 "/>
<polygon fill="#48BA7F" points="631.877,625.615 617.182,655.391 602.487,625.615 "/>
<polygon fill="#7181BF" points="646.572,655.391 631.877,625.615 617.182,655.391 "/>
<polygon fill="#7181BF" points="29.389,655.391 14.695,625.615 0,655.391 "/>
<polygon fill="#48BA7F" points="29.39,655.391 14.695,685.164 0,655.391 "/>
<polygon fill="#7181BF" points="44.084,685.164 29.39,655.391 14.695,685.164 "/>
<polygon fill="#48BA7F" points="58.779,655.391 44.084,685.164 29.39,655.391 "/>
<polygon fill="#7181BF" points="73.474,685.164 58.78,655.391 44.084,685.164 "/>
<polygon fill="#48BA7F" points="88.169,655.391 73.474,685.164 58.779,655.391 "/>
<polygon fill="#7181BF" points="102.864,685.164 88.169,655.391 73.474,685.164 "/>
<polygon fill="#48BA7F" points="117.559,655.391 102.864,685.164 88.169,655.391 "/>
<polygon fill="#7181BF" points="132.253,685.164 117.559,655.391 102.864,685.164 "/>
<polygon fill="#48BA7F" points="146.948,655.391 132.253,685.164 117.559,655.391 "/>
<polygon fill="#7181BF" points="161.643,685.164 146.949,655.391 132.253,685.164 "/>
<polygon fill="#48BA7F" points="176.338,655.391 161.643,685.164 146.948,655.391 "/>
<polygon fill="#7181BF" points="191.033,685.164 176.338,655.391 161.643,685.164 "/>
<polygon fill="#48BA7F" points="205.728,655.391 191.033,685.164 176.338,655.391 "/>
<polygon fill="#7181BF" points="220.422,685.164 205.728,655.391 191.033,685.164 "/>
<polygon fill="#48BA7F" points="235.117,655.391 220.422,685.164 205.728,655.391 "/>
<polygon fill="#7181BF" points="249.812,685.164 235.118,655.391 220.422,685.164 "/>
<polygon fill="#48BA7F" points="264.507,655.391 249.812,685.164 235.117,655.391 "/>
<polygon fill="#7181BF" points="279.201,685.164 264.508,655.391 249.812,685.164 "/>
<polygon fill="#48BA7F" points="293.896,655.391 279.201,685.164 264.507,655.391 "/>
<polygon fill="#7181BF" points="308.592,685.164 293.896,655.391 279.201,685.164 "/>
<polygon fill="#48BA7F" points="323.286,655.391 308.592,685.164 293.896,655.391 "/>
<polygon fill="#7181BF" points="337.98,685.164 323.287,655.391 308.592,685.164 "/>
<polygon fill="#48BA7F" points="352.676,655.391 337.98,685.164 323.286,655.391 "/>
<polygon fill="#7181BF" points="367.371,685.164 352.676,655.391 337.98,685.164 "/>
<polygon fill="#48BA7F" points="382.065,655.391 367.371,685.164 352.676,655.391 "/>
<polygon fill="#7181BF" points="396.76,685.164 382.066,655.391 367.371,685.164 "/>
<polygon fill="#48BA7F" points="411.455,655.391 396.76,685.164 382.065,655.391 "/>
<polygon fill="#7181BF" points="426.15,685.164 411.455,655.391 396.76,685.164 "/>
<polygon fill="#48BA7F" points="440.845,655.391 426.15,685.164 411.455,655.391 "/>
<polygon fill="#7181BF" points="455.539,685.164 440.846,655.391 426.15,685.164 "/>
<polygon fill="#48BA7F" points="470.234,655.391 455.539,685.164 440.845,655.391 "/>
<polygon fill="#7181BF" points="484.93,685.164 470.234,655.391 455.539,685.164 "/>
<polygon fill="#48BA7F" points="499.624,655.391 484.929,685.164 470.234,655.391 "/>
<polygon fill="#7181BF" points="514.319,685.164 499.624,655.391 484.929,685.164 "/>
<polygon fill="#48BA7F" points="529.014,655.391 514.318,685.164 499.624,655.391 "/>
<polygon fill="#7181BF" points="543.709,685.164 529.014,655.391 514.318,685.164 "/>
<polygon fill="#48BA7F" points="558.403,655.391 543.708,685.164 529.014,655.391 "/>
<polygon fill="#7181BF" points="573.099,685.164 558.403,655.391 543.708,685.164 "/>
<polygon fill="#48BA7F" points="587.793,655.391 573.098,685.164 558.403,655.391 "/>
<polygon fill="#7181BF" points="602.488,685.164 587.793,655.391 573.098,685.164 "/>
<polygon fill="#48BA7F" points="617.183,655.391 602.487,685.164 587.793,655.391 "/>
<polygon fill="#7181BF" points="631.878,685.164 617.183,655.391 602.487,685.164 "/>
<polygon fill="#7181BF" points="14.694,685.164 0.001,655.391 -14.695,685.164 "/>
<polygon fill="#48BA7F" points="44.084,685.164 29.389,714.939 14.694,685.164 "/>
<polygon fill="#7181BF" points="58.779,714.939 44.084,685.164 29.389,714.939 "/>
<polygon fill="#48BA7F" points="73.474,685.164 58.779,714.939 44.084,685.164 "/>
<polygon fill="#7181BF" points="88.168,714.939 73.474,685.164 58.779,714.939 "/>
<polygon fill="#48BA7F" points="102.863,685.164 88.168,714.939 73.474,685.164 "/>
<polygon fill="#7181BF" points="117.558,714.939 102.864,685.164 88.168,714.939 "/>
<polygon fill="#48BA7F" points="132.253,685.164 117.558,714.939 102.863,685.164 "/>
<polygon fill="#7181BF" points="146.948,714.939 132.253,685.164 117.558,714.939 "/>
<polygon fill="#48BA7F" points="161.643,685.164 146.948,714.939 132.253,685.164 "/>
<polygon fill="#7181BF" points="176.337,714.939 161.643,685.164 146.948,714.939 "/>
<polygon fill="#48BA7F" points="191.032,685.164 176.337,714.939 161.643,685.164 "/>
<polygon fill="#7181BF" points="205.727,714.939 191.033,685.164 176.337,714.939 "/>
<polygon fill="#48BA7F" points="220.422,685.164 205.727,714.939 191.032,685.164 "/>
<polygon fill="#7181BF" points="235.117,714.939 220.422,685.164 205.727,714.939 "/>
<polygon fill="#48BA7F" points="249.812,685.164 235.117,714.939 220.422,685.164 "/>
<polygon fill="#7181BF" points="264.506,714.939 249.812,685.164 235.117,714.939 "/>
<polygon fill="#48BA7F" points="279.201,685.164 264.506,714.939 249.812,685.164 "/>
<polygon fill="#7181BF" points="293.896,714.939 279.202,685.164 264.506,714.939 "/>
<polygon fill="#48BA7F" points="308.591,685.164 293.896,714.939 279.201,685.164 "/>
<polygon fill="#7181BF" points="323.286,714.939 308.591,685.164 293.896,714.939 "/>
<polygon fill="#48BA7F" points="337.98,685.164 323.286,714.939 308.591,685.164 "/>
<polygon fill="#7181BF" points="352.675,714.939 337.981,685.164 323.286,714.939 "/>
<polygon fill="#48BA7F" points="367.37,685.164 352.675,714.939 337.98,685.164 "/>
<polygon fill="#7181BF" points="382.065,714.939 367.37,685.164 352.675,714.939 "/>
<polygon fill="#48BA7F" points="396.76,685.164 382.065,714.939 367.37,685.164 "/>
<polygon fill="#7181BF" points="411.454,714.939 396.761,685.164 382.065,714.939 "/>
<polygon fill="#48BA7F" points="426.149,685.164 411.454,714.939 396.76,685.164 "/>
<polygon fill="#7181BF" points="440.845,714.939 426.149,685.164 411.454,714.939 "/>
<polygon fill="#48BA7F" points="455.539,685.164 440.845,714.939 426.149,685.164 "/>
<polygon fill="#7181BF" points="470.233,714.939 455.54,685.164 440.845,714.939 "/>
<polygon fill="#48BA7F" points="484.929,685.164 470.233,714.939 455.539,685.164 "/>
<polygon fill="#7181BF" points="499.624,714.939 484.929,685.164 470.233,714.939 "/>
<polygon fill="#48BA7F" points="514.318,685.164 499.623,714.939 484.929,685.164 "/>
<polygon fill="#7181BF" points="529.014,714.939 514.318,685.164 499.623,714.939 "/>
<polygon fill="#48BA7F" points="543.708,685.164 529.013,714.939 514.318,685.164 "/>
<polygon fill="#7181BF" points="558.403,714.939 543.708,685.164 529.013,714.939 "/>
<polygon fill="#48BA7F" points="573.098,685.164 558.402,714.939 543.708,685.164 "/>
<polygon fill="#7181BF" points="587.793,714.939 573.098,685.164 558.402,714.939 "/>
<polygon fill="#48BA7F" points="602.487,685.164 587.792,714.939 573.098,685.164 "/>
<polygon fill="#7181BF" points="617.183,714.939 602.487,685.164 587.792,714.939 "/>
<polygon fill="#48BA7F" points="631.877,685.164 617.182,714.939 602.487,685.164 "/>
<polygon fill="#7181BF" points="646.572,714.939 631.877,685.164 617.182,714.939 "/>
<polygon fill="#7181BF" points="29.389,714.939 14.695,685.164 0,714.939 "/>
<polygon fill="#48BA7F" points="29.388,714.939 14.693,744.715 -0.002,714.939 "/>
<polygon fill="#7181BF" points="44.083,744.715 29.388,714.939 14.693,744.715 "/>
<polygon fill="#48BA7F" points="58.777,714.939 44.083,744.715 29.388,714.939 "/>
<polygon fill="#7181BF" points="73.472,744.715 58.778,714.939 44.083,744.715 "/>
<polygon fill="#48BA7F" points="88.167,714.939 73.472,744.715 58.777,714.939 "/>
<polygon fill="#7181BF" points="102.862,744.715 88.167,714.939 73.472,744.715 "/>
<polygon fill="#48BA7F" points="117.557,714.939 102.862,744.715 88.167,714.939 "/>
<polygon fill="#7181BF" points="132.251,744.715 117.557,714.939 102.862,744.715 "/>
<polygon fill="#48BA7F" points="146.946,714.939 132.251,744.715 117.557,714.939 "/>
<polygon fill="#7181BF" points="161.641,744.715 146.947,714.939 132.251,744.715 "/>
<polygon fill="#48BA7F" points="176.336,714.939 161.641,744.715 146.946,714.939 "/>
<polygon fill="#7181BF" points="191.031,744.715 176.336,714.939 161.641,744.715 "/>
<polygon fill="#48BA7F" points="205.726,714.939 191.031,744.715 176.336,714.939 "/>
<polygon fill="#7181BF" points="220.42,744.715 205.726,714.939 191.031,744.715 "/>
<polygon fill="#48BA7F" points="235.115,714.939 220.42,744.715 205.726,714.939 "/>
<polygon fill="#7181BF" points="249.81,744.715 235.116,714.939 220.42,744.715 "/>
<polygon fill="#48BA7F" points="264.505,714.939 249.81,744.715 235.115,714.939 "/>
<polygon fill="#7181BF" points="279.199,744.715 264.506,714.939 249.81,744.715 "/>
<polygon fill="#48BA7F" points="293.894,714.939 279.199,744.715 264.505,714.939 "/>
<polygon fill="#7181BF" points="308.59,744.715 293.894,714.939 279.199,744.715 "/>
<polygon fill="#48BA7F" points="323.285,714.939 308.59,744.715 293.894,714.939 "/>
<polygon fill="#7181BF" points="337.979,744.715 323.285,714.939 308.59,744.715 "/>
<polygon fill="#48BA7F" points="352.674,714.939 337.979,744.715 323.285,714.939 "/>
<polygon fill="#7181BF" points="367.369,744.715 352.674,714.939 337.979,744.715 "/>
<polygon fill="#48BA7F" points="382.064,714.939 367.369,744.715 352.674,714.939 "/>
<polygon fill="#7181BF" points="396.758,744.715 382.064,714.939 367.369,744.715 "/>
<polygon fill="#48BA7F" points="411.453,714.939 396.758,744.715 382.064,714.939 "/>
<polygon fill="#7181BF" points="426.148,744.715 411.453,714.939 396.758,744.715 "/>
<polygon fill="#48BA7F" points="440.844,714.939 426.148,744.715 411.453,714.939 "/>
<polygon fill="#7181BF" points="455.537,744.715 440.844,714.939 426.148,744.715 "/>
<polygon fill="#48BA7F" points="470.232,714.939 455.537,744.715 440.844,714.939 "/>
<polygon fill="#7181BF" points="484.928,744.715 470.232,714.939 455.537,744.715 "/>
<polygon fill="#48BA7F" points="499.623,714.939 484.928,744.715 470.232,714.939 "/>
<polygon fill="#7181BF" points="514.318,744.715 499.623,714.939 484.928,744.715 "/>
<polygon fill="#48BA7F" points="529.012,714.939 514.316,744.715 499.623,714.939 "/>
<polygon fill="#7181BF" points="543.707,744.715 529.012,714.939 514.316,744.715 "/>
<polygon fill="#48BA7F" points="558.402,714.939 543.707,744.715 529.012,714.939 "/>
<polygon fill="#7181BF" points="573.098,744.715 558.402,714.939 543.707,744.715 "/>
<polygon fill="#48BA7F" points="587.791,714.939 573.096,744.715 558.402,714.939 "/>
<polygon fill="#7181BF" points="602.486,744.715 587.791,714.939 573.096,744.715 "/>
<polygon fill="#48BA7F" points="617.182,714.939 602.486,744.715 587.791,714.939 "/>
<polygon fill="#7181BF" points="631.877,744.715 617.182,714.939 602.486,744.715 "/>
<polygon fill="#7181BF" points="14.692,744.715 -0.001,714.939 -14.697,744.715 "/>
<polygon fill="#48BA7F" points="14.693,744.715 -0.001,774.488 -14.696,744.715 "/>
<polygon fill="#7181BF" points="29.388,774.488 14.694,744.715 -0.001,774.488 "/>
<polygon fill="#48BA7F" points="44.083,744.715 29.388,774.488 14.693,744.715 "/>
<polygon fill="#7181BF" points="58.778,774.488 44.083,744.715 29.388,774.488 "/>
<polygon fill="#48BA7F" points="73.473,744.715 58.778,774.488 44.083,744.715 "/>
<polygon fill="#7181BF" points="88.167,774.488 73.473,744.715 58.778,774.488 "/>
<polygon fill="#48BA7F" points="102.862,744.715 88.167,774.488 73.473,744.715 "/>
<polygon fill="#7181BF" points="117.557,774.488 102.863,744.715 88.167,774.488 "/>
<polygon fill="#48BA7F" points="132.252,744.715 117.557,774.488 102.862,744.715 "/>
<polygon fill="#7181BF" points="146.947,774.488 132.252,744.715 117.557,774.488 "/>
<polygon fill="#48BA7F" points="161.642,744.715 146.947,774.488 132.252,744.715 "/>
<polygon fill="#7181BF" points="176.336,774.488 161.642,744.715 146.947,774.488 "/>
<polygon fill="#48BA7F" points="191.031,744.715 176.336,774.488 161.642,744.715 "/>
<polygon fill="#7181BF" points="205.726,774.488 191.032,744.715 176.336,774.488 "/>
<polygon fill="#48BA7F" points="220.421,744.715 205.726,774.488 191.031,744.715 "/>
<polygon fill="#7181BF" points="235.116,774.488 220.421,744.715 205.726,774.488 "/>
<polygon fill="#48BA7F" points="249.811,744.715 235.116,774.488 220.421,744.715 "/>
<polygon fill="#7181BF" points="264.505,774.488 249.812,744.715 235.116,774.488 "/>
<polygon fill="#48BA7F" points="279.201,744.715 264.505,774.488 249.811,744.715 "/>
<polygon fill="#7181BF" points="293.896,774.488 279.201,744.715 264.505,774.488 "/>
<polygon fill="#48BA7F" points="308.59,744.715 293.896,774.488 279.201,744.715 "/>
<polygon fill="#7181BF" points="323.285,774.488 308.592,744.715 293.896,774.488 "/>
<polygon fill="#48BA7F" points="337.98,744.715 323.285,774.488 308.59,744.715 "/>
<polygon fill="#7181BF" points="352.676,774.488 337.98,744.715 323.285,774.488 "/>
<polygon fill="#48BA7F" points="367.369,744.715 352.676,774.488 337.98,744.715 "/>
<polygon fill="#7181BF" points="382.064,774.488 367.371,744.715 352.676,774.488 "/>
<polygon fill="#48BA7F" points="396.76,744.715 382.064,774.488 367.369,744.715 "/>
<polygon fill="#7181BF" points="411.455,774.488 396.76,744.715 382.064,774.488 "/>
<polygon fill="#48BA7F" points="426.148,744.715 411.455,774.488 396.76,744.715 "/>
<polygon fill="#7181BF" points="440.844,774.488 426.15,744.715 411.455,774.488 "/>
<polygon fill="#48BA7F" points="455.539,744.715 440.844,774.488 426.148,744.715 "/>
<polygon fill="#7181BF" points="470.234,774.488 455.539,744.715 440.844,774.488 "/>
<polygon fill="#48BA7F" points="484.928,744.715 470.232,774.488 455.539,744.715 "/>
<polygon fill="#7181BF" points="499.623,774.488 484.928,744.715 470.232,774.488 "/>
<polygon fill="#48BA7F" points="514.318,744.715 499.623,774.488 484.928,744.715 "/>
<polygon fill="#7181BF" points="529.014,774.488 514.318,744.715 499.623,774.488 "/>
<polygon fill="#48BA7F" points="543.707,744.715 529.012,774.488 514.318,744.715 "/>
<polygon fill="#7181BF" points="558.402,774.488 543.707,744.715 529.012,774.488 "/>
<polygon fill="#48BA7F" points="573.098,744.715 558.402,774.488 543.707,744.715 "/>
<polygon fill="#7181BF" points="587.793,774.488 573.098,744.715 558.402,774.488 "/>
<polygon fill="#48BA7F" points="602.486,744.715 587.791,774.488 573.098,744.715 "/>
<polygon fill="#7181BF" points="617.182,774.488 602.486,744.715 587.791,774.488 "/>
<polygon fill="#7181BF" points="-0.002,774.488 -14.695,744.715 -29.391,774.488 "/>
<polygon fill="#48BA7F" points="29.388,774.488 14.693,804.264 -0.002,774.488 "/>
<polygon fill="#7181BF" points="44.083,804.264 29.388,774.488 14.693,804.264 "/>
<polygon fill="#48BA7F" points="58.777,774.488 44.083,804.264 29.388,774.488 "/>
<polygon fill="#7181BF" points="73.472,804.264 58.778,774.488 44.083,804.264 "/>
<polygon fill="#48BA7F" points="88.167,774.488 73.472,804.264 58.777,774.488 "/>
<polygon fill="#7181BF" points="102.862,804.264 88.167,774.488 73.472,804.264 "/>
<polygon fill="#48BA7F" points="117.557,774.488 102.862,804.264 88.167,774.488 "/>
<polygon fill="#7181BF" points="132.251,804.264 117.557,774.488 102.862,804.264 "/>
<polygon fill="#48BA7F" points="146.946,774.488 132.251,804.264 117.557,774.488 "/>
<polygon fill="#7181BF" points="161.641,804.264 146.947,774.488 132.251,804.264 "/>
<polygon fill="#48BA7F" points="176.336,774.488 161.641,804.264 146.946,774.488 "/>
<polygon fill="#7181BF" points="191.031,804.264 176.336,774.488 161.641,804.264 "/>
<polygon fill="#48BA7F" points="205.726,774.488 191.031,804.264 176.336,774.488 "/>
<polygon fill="#7181BF" points="220.42,804.264 205.726,774.488 191.031,804.264 "/>
<polygon fill="#48BA7F" points="235.115,774.488 220.42,804.264 205.726,774.488 "/>
<polygon fill="#7181BF" points="249.81,804.264 235.116,774.488 220.42,804.264 "/>
<polygon fill="#48BA7F" points="264.505,774.488 249.81,804.264 235.115,774.488 "/>
<polygon fill="#7181BF" points="279.199,804.264 264.506,774.488 249.81,804.264 "/>
<polygon fill="#48BA7F" points="293.894,774.488 279.199,804.264 264.505,774.488 "/>
<polygon fill="#7181BF" points="308.59,804.264 293.894,774.488 279.199,804.264 "/>
<polygon fill="#48BA7F" points="323.285,774.488 308.59,804.264 293.894,774.488 "/>
<polygon fill="#7181BF" points="337.979,804.264 323.285,774.488 308.59,804.264 "/>
<polygon fill="#48BA7F" points="352.674,774.488 337.979,804.264 323.285,774.488 "/>
<polygon fill="#7181BF" points="367.369,804.264 352.674,774.488 337.979,804.264 "/>
<polygon fill="#48BA7F" points="382.064,774.488 367.369,804.264 352.674,774.488 "/>
<polygon fill="#7181BF" points="396.758,804.264 382.064,774.488 367.369,804.264 "/>
<polygon fill="#48BA7F" points="411.453,774.488 396.758,804.264 382.064,774.488 "/>
<polygon fill="#7181BF" points="426.148,804.264 411.453,774.488 396.758,804.264 "/>
<polygon fill="#48BA7F" points="440.844,774.488 426.148,804.264 411.453,774.488 "/>
<polygon fill="#7181BF" points="455.537,804.264 440.844,774.488 426.148,804.264 "/>
<polygon fill="#48BA7F" points="470.232,774.488 455.537,804.264 440.844,774.488 "/>
<polygon fill="#7181BF" points="484.928,804.264 470.232,774.488 455.537,804.264 "/>
<polygon fill="#48BA7F" points="499.623,774.488 484.928,804.264 470.232,774.488 "/>
<polygon fill="#7181BF" points="514.318,804.264 499.623,774.488 484.928,804.264 "/>
<polygon fill="#48BA7F" points="529.012,774.488 514.316,804.264 499.623,774.488 "/>
<polygon fill="#7181BF" points="543.707,804.264 529.012,774.488 514.316,804.264 "/>
<polygon fill="#48BA7F" points="558.402,774.488 543.707,804.264 529.012,774.488 "/>
<polygon fill="#7181BF" points="573.098,804.264 558.402,774.488 543.707,804.264 "/>
<polygon fill="#48BA7F" points="587.791,774.488 573.096,804.264 558.402,774.488 "/>
<polygon fill="#7181BF" points="602.486,804.264 587.791,774.488 573.096,804.264 "/>
<polygon fill="#48BA7F" points="617.182,774.488 602.486,804.264 587.791,774.488 "/>
<polygon fill="#7181BF" points="631.877,804.264 617.182,774.488 602.486,804.264 "/>
<polygon fill="#7181BF" points="14.692,804.264 -0.001,774.488 -14.697,804.264 "/>
</svg>
